<svg width="36" height="24" viewBox="0 0 36 24" fill="none" xmlns="http://www.w3.org/2000/svg">
<rect x="1.18872" y="0.559815" width="33.5905" height="22.8805" rx="2.6775" fill="white" stroke="#EAEBED" stroke-width="0.486818"/>
<path fill-rule="evenodd" clip-rule="evenodd" d="M10.2737 8.43958C9.98769 8.7822 9.53004 9.05244 9.07239 9.01383C9.01519 8.55057 9.23925 8.05836 9.50144 7.75434C9.78747 7.40207 10.288 7.15114 10.6932 7.13184C10.7409 7.6144 10.555 8.08731 10.2737 8.43958ZM10.6885 9.10562C10.2853 9.08214 9.91741 9.22836 9.62026 9.34648C9.42904 9.42248 9.26711 9.48685 9.14391 9.48685C9.00566 9.48685 8.83705 9.41904 8.64773 9.34291C8.39966 9.24316 8.11605 9.12911 7.81864 9.13458C7.13693 9.14423 6.5029 9.53511 6.15489 10.1576C5.43982 11.4026 5.96897 13.246 6.66021 14.2594C6.99868 14.7613 7.40389 15.3114 7.93782 15.2921C8.17271 15.2831 8.34168 15.2105 8.51655 15.1354C8.71787 15.049 8.92701 14.9591 9.25356 14.9591C9.56879 14.9591 9.76878 15.0466 9.96076 15.1306C10.1433 15.2105 10.3186 15.2871 10.5788 15.2824C11.1318 15.2728 11.4798 14.7806 11.8183 14.2787C12.1836 13.7401 12.3441 13.2144 12.3684 13.1346L12.3713 13.1254C12.3707 13.1248 12.3662 13.1227 12.3582 13.119C12.2361 13.0624 11.3029 12.6299 11.2939 11.4702C11.2849 10.4967 12.0342 10.0035 12.1521 9.9259L12.1521 9.9259C12.1593 9.92118 12.1641 9.91799 12.1663 9.91633C11.6896 9.20214 10.9459 9.12493 10.6885 9.10562ZM14.5166 15.2293V7.70613H17.3054C18.7451 7.70613 19.7509 8.70986 19.7509 10.1769C19.7509 11.6438 18.726 12.6572 17.2672 12.6572H15.6702V15.2293H14.5166ZM15.6701 8.69046H17.0002C18.0013 8.69046 18.5734 9.23093 18.5734 10.1816C18.5734 11.1322 18.0013 11.6775 16.9954 11.6775H15.6701V8.69046ZM23.56 14.3268C23.2549 14.9155 22.5827 15.2871 21.8581 15.2871C20.7855 15.2871 20.037 14.6405 20.037 13.6657C20.037 12.7006 20.7616 12.1456 22.1012 12.0636L23.5409 11.9767V11.5617C23.5409 10.9489 23.1452 10.6159 22.4397 10.6159C21.8581 10.6159 21.4338 10.9199 21.348 11.3832H20.3087C20.3421 10.4084 21.2479 9.69904 22.473 9.69904C23.7935 9.69904 24.6516 10.3988 24.6516 11.4845V15.2292H23.5838V14.3268H23.56ZM22.1678 14.3943C21.5529 14.3943 21.1619 14.0952 21.1619 13.6367C21.1619 13.1638 21.5386 12.8888 22.2584 12.8453L23.5408 12.7633V13.1879C23.5408 13.8925 22.9496 14.3943 22.1678 14.3943ZM28.1936 15.5237C27.7312 16.8411 27.2021 17.2754 26.077 17.2754C25.9912 17.2754 25.7052 17.2657 25.6384 17.2464V16.3441C25.7099 16.3537 25.8863 16.3634 25.9769 16.3634C26.487 16.3634 26.773 16.1462 26.9494 15.5816L27.0543 15.2486L25.0998 9.77154H26.3058L27.6645 14.2159H27.6883L29.047 9.77154H30.2197L28.1936 15.5237Z" fill="#282739"/>
</svg>
