<svg width="136" height="45" viewBox="0 0 136 45" fill="none" xmlns="http://www.w3.org/2000/svg">
<path d="M124.357 -9.78906e-05H11.1816C10.7691 -9.78906e-05 10.3615 -9.78906e-05 9.95002 0.00215211C9.6056 0.00440211 9.26393 0.0109384 8.9162 0.0164396C8.16078 0.0253291 7.40714 0.0917879 6.66182 0.215238C5.91754 0.341376 5.19658 0.579182 4.52333 0.920613C3.85089 1.26493 3.23647 1.71234 2.70234 2.24661C2.16542 2.77937 1.71785 3.39517 1.37685 4.07033C1.0349 4.74415 0.797799 5.46621 0.673722 6.21157C0.548465 6.95598 0.481064 7.70899 0.472122 8.46382C0.461682 8.80874 0.460579 9.15481 0.455078 9.49978V35.5033C0.460579 35.8526 0.461682 36.191 0.472122 36.5405C0.481067 37.2952 0.548468 38.0482 0.673722 38.7926C0.797456 39.5384 1.03457 40.2609 1.37685 40.9349C1.71769 41.6079 2.16533 42.2212 2.70234 42.751C3.23444 43.2877 3.84926 43.7354 4.52333 44.0771C5.19658 44.4194 5.91746 44.6586 6.66182 44.7867C7.40726 44.9092 8.16083 44.9757 8.9162 44.9856C9.26393 44.9933 9.6056 44.9977 9.95002 44.9977C10.3615 44.9999 10.7691 44.9999 11.1816 44.9999H124.357C124.761 44.9999 125.172 44.9999 125.576 44.9977C125.919 44.9977 126.271 44.9933 126.613 44.9856C127.367 44.9762 128.119 44.9097 128.863 44.7867C129.61 44.6577 130.334 44.4186 131.01 44.0771C131.684 43.7352 132.298 43.2875 132.829 42.751C133.365 42.2191 133.814 41.6063 134.159 40.9349C134.498 40.2604 134.733 39.538 134.855 38.7926C134.981 38.0481 135.05 37.2953 135.064 36.5405C135.068 36.191 135.068 35.8526 135.068 35.5033C135.077 35.0946 135.077 34.6881 135.077 34.2728V10.728C135.077 10.3161 135.077 9.90737 135.068 9.49978C135.068 9.15481 135.068 8.80874 135.064 8.46377C135.05 7.70888 134.981 6.95604 134.855 6.21152C134.733 5.46659 134.498 4.74459 134.159 4.07029C133.464 2.717 132.363 1.61543 131.01 0.920512C130.334 0.579915 129.61 0.342173 128.863 0.215137C128.12 0.0911427 127.367 0.0246608 126.613 0.0162821C126.271 0.0107921 125.919 0.00419961 125.576 0.00200586C125.172 -0.000244141 124.761 -0.000244141 124.357 -0.000244141V-9.78906e-05Z" fill="white"/>
<path d="M28.5767 22.3753C28.5893 21.3988 28.8487 20.4414 29.3307 19.5921C29.8127 18.7429 30.5017 18.0293 31.3336 17.5179C30.8052 16.7631 30.108 16.142 29.2974 15.7038C28.4869 15.2656 27.5854 15.0225 26.6645 14.9936C24.6999 14.7874 22.7954 16.1692 21.7943 16.1692C20.7739 16.1692 19.2326 15.0141 17.5728 15.0483C16.4992 15.0829 15.4529 15.3951 14.5359 15.9544C13.6189 16.5137 12.8623 17.301 12.34 18.2395C10.0775 22.1568 11.7651 27.9139 13.9325 31.0803C15.0168 32.6308 16.2841 34.3628 17.9424 34.3013C19.5651 34.234 20.1711 33.2666 22.1299 33.2666C24.0704 33.2666 24.639 34.3013 26.3309 34.2623C28.0722 34.234 29.1692 32.7049 30.2155 31.1397C30.9947 30.0349 31.5942 28.8139 31.9919 27.5218C30.9803 27.094 30.117 26.3778 29.5097 25.4626C28.9024 24.5474 28.5779 23.4737 28.5767 22.3753Z" fill="#282739"/>
<path d="M25.3801 12.9115C26.3295 11.7718 26.7972 10.3069 26.684 8.82788C25.2335 8.98022 23.8937 9.67345 22.9315 10.7694C22.461 11.3048 22.1007 11.9277 21.8711 12.6025C21.6415 13.2772 21.5472 13.9906 21.5935 14.7019C22.319 14.7093 23.0367 14.5521 23.6926 14.242C24.3485 13.9318 24.9255 13.4769 25.3801 12.9115Z" fill="#282739"/>
<path d="M48.0449 30.5324H42.7198L41.441 34.3084H39.1855L44.2294 20.3381H46.5727L51.6166 34.3084H49.3226L48.0449 30.5324ZM43.2714 28.7899H47.4924L45.4115 22.6618H45.3533L43.2714 28.7899Z" fill="#282739"/>
<path d="M62.5085 29.2164C62.5085 32.3815 60.8144 34.4151 58.2578 34.4151C57.6102 34.449 56.9662 34.2998 56.3994 33.9846C55.8326 33.6695 55.3661 33.2011 55.0531 32.6331H55.0048V37.678H52.9141V24.1231H54.9377V25.8172H54.9762C55.3035 25.2519 55.778 24.786 56.3491 24.4689C56.9201 24.1518 57.5665 23.9955 58.2194 24.0165C60.8045 24.0165 62.5085 26.06 62.5085 29.2164ZM60.3595 29.2164C60.3595 27.1542 59.2938 25.7985 57.6679 25.7985C56.0705 25.7985 54.996 27.1828 54.996 29.2164C54.996 31.2686 56.0705 32.643 57.6679 32.643C59.2939 32.643 60.3595 31.2972 60.3595 29.2164H60.3595Z" fill="#282739"/>
<path d="M73.7199 29.2164C73.7199 32.3815 72.0253 34.4151 69.4688 34.4151C68.8212 34.449 68.1771 34.2998 67.6103 33.9846C67.0436 33.6695 66.577 33.2011 66.2641 32.6331H66.2157V37.678H64.125V24.1231H66.1487V25.8172H66.1871C66.5145 25.2519 66.9889 24.786 67.56 24.4689C68.1311 24.1518 68.7774 23.9955 69.4303 24.0165C72.0154 24.0165 73.7199 26.06 73.7199 29.2164ZM71.5705 29.2164C71.5705 27.1542 70.5048 25.7985 68.8788 25.7985C67.2814 25.7985 66.2069 27.1828 66.2069 29.2164C66.2069 31.2686 67.2814 32.643 68.8788 32.643C70.5048 32.643 71.5705 31.2972 71.5705 29.2164Z" fill="#282739"/>
<path d="M81.1285 30.4162C81.2834 31.8016 82.6292 32.7112 84.4683 32.7112C86.2305 32.7112 87.4983 31.8015 87.4983 30.5524C87.4983 29.468 86.7337 28.8188 84.9232 28.3738L83.1126 27.9376C80.5473 27.318 79.3564 26.1183 79.3564 24.1715C79.3564 21.7611 81.457 20.1055 84.4387 20.1055C87.3918 20.1055 89.4155 21.7611 89.4836 24.1715H87.3731C87.2468 22.7773 86.0943 21.9358 84.4101 21.9358C82.7259 21.9358 81.5734 22.7872 81.5734 24.0265C81.5734 25.0142 82.3095 25.5953 84.1102 26.0402L85.6493 26.4182C88.5157 27.096 89.7055 28.2474 89.7055 30.2909C89.7055 32.9045 87.6247 34.5415 84.3134 34.5415C81.2152 34.5415 79.1234 32.943 78.9883 30.4161L81.1285 30.4162Z" fill="#282739"/>
<path d="M94.2202 21.7129V24.1233H96.1571V25.7789H94.2202V31.394C94.2202 32.2664 94.608 32.6729 95.4595 32.6729C95.6894 32.6688 95.919 32.6527 96.1472 32.6245V34.2702C95.7644 34.3418 95.3753 34.3742 94.986 34.3669C92.9238 34.3669 92.1196 33.5924 92.1196 31.617V25.7789H90.6387V24.1233H92.1196V21.7129H94.2202Z" fill="#282739"/>
<path d="M97.2773 29.2163C97.2773 26.0116 99.1648 23.9978 102.108 23.9978C105.061 23.9978 106.94 26.0116 106.94 29.2163C106.94 32.4298 105.071 34.4348 102.108 34.4348C99.1461 34.4348 97.2773 32.4298 97.2773 29.2163ZM104.81 29.2163C104.81 27.0179 103.802 25.7205 102.108 25.7205C100.414 25.7205 99.4065 27.0278 99.4065 29.2163C99.4065 31.4235 100.414 32.7111 102.108 32.7111C103.802 32.7111 104.81 31.4235 104.81 29.2163H104.81Z" fill="#282739"/>
<path d="M108.664 24.123H110.658V25.8566H110.706C110.841 25.3152 111.159 24.8367 111.605 24.5016C112.051 24.1664 112.599 23.9951 113.156 24.0164C113.397 24.0156 113.638 24.0417 113.873 24.0944V26.05C113.569 25.957 113.251 25.9144 112.933 25.9237C112.63 25.9113 112.327 25.9649 112.046 26.0806C111.765 26.1964 111.512 26.3716 111.305 26.5942C111.098 26.8168 110.942 27.0816 110.847 27.3704C110.752 27.6591 110.72 27.965 110.755 28.267V34.3084H108.664L108.664 24.123Z" fill="#282739"/>
<path d="M123.512 31.3169C123.231 33.1659 121.43 34.4348 119.126 34.4348C116.163 34.4348 114.324 32.4496 114.324 29.2646C114.324 26.0698 116.173 23.9978 119.038 23.9978C121.856 23.9978 123.629 25.9336 123.629 29.0219V29.7382H116.435V29.8645C116.401 30.2394 116.448 30.617 116.572 30.9723C116.696 31.3276 116.894 31.6525 117.154 31.9254C117.413 32.1982 117.727 32.4128 118.075 32.5549C118.424 32.697 118.799 32.7633 119.175 32.7495C119.669 32.7958 120.165 32.6814 120.588 32.4233C121.012 32.1651 121.341 31.7771 121.527 31.3169L123.512 31.3169ZM116.445 28.277H121.537C121.555 27.9399 121.504 27.6026 121.387 27.2863C121.269 26.9699 121.087 26.6813 120.852 26.4386C120.618 26.1958 120.336 26.0042 120.023 25.8757C119.711 25.7472 119.376 25.6846 119.038 25.6919C118.698 25.6899 118.36 25.7553 118.045 25.8844C117.73 26.0134 117.444 26.2036 117.203 26.444C116.962 26.6843 116.771 26.97 116.64 27.2846C116.51 27.5993 116.444 27.9365 116.445 28.277V28.277Z" fill="#282739"/>
</svg>
