<svg width="16" height="12" viewBox="0 0 16 12" fill="none" xmlns="http://www.w3.org/2000/svg">
<path d="M8 7.125C8.62132 7.125 9.125 6.62132 9.125 6C9.125 5.37868 8.62132 4.875 8 4.875C7.37868 4.875 6.875 5.37868 6.875 6C6.875 6.62132 7.37868 7.125 8 7.125Z" fill="#5D6C7B"/>
<path d="M15.4016 5.6249C14.9216 4.7924 12.2816 0.614904 7.79657 0.749904C3.64907 0.854904 1.24907 4.4999 0.596575 5.6249C0.530749 5.73892 0.496094 5.86825 0.496094 5.9999C0.496094 6.13156 0.530749 6.26089 0.596575 6.3749C1.06907 7.1924 3.59658 11.2499 8.01408 11.2499H8.20158C12.3491 11.1449 14.7566 7.4999 15.4016 6.3749C15.4674 6.26089 15.5021 6.13156 15.5021 5.9999C15.5021 5.86825 15.4674 5.73892 15.4016 5.6249ZM7.99907 8.6249C7.4799 8.6249 6.97238 8.47095 6.5407 8.18251C6.10902 7.89407 5.77257 7.4841 5.57389 7.00445C5.37521 6.52479 5.32323 5.99699 5.42451 5.48779C5.5258 4.97859 5.77581 4.51086 6.14292 4.14375C6.51003 3.77664 6.97776 3.52663 7.48696 3.42534C7.99616 3.32406 8.52396 3.37604 9.00362 3.57472C9.48327 3.7734 9.89324 4.10985 10.1817 4.54153C10.4701 4.97321 10.6241 5.48073 10.6241 5.9999C10.6241 6.6961 10.3475 7.36378 9.85523 7.85606C9.36295 8.34834 8.69527 8.6249 7.99907 8.6249Z" fill="#5D6C7B"/>
</svg>
