<svg width="35" height="24" viewBox="0 0 35 24" fill="none" xmlns="http://www.w3.org/2000/svg">
<rect x="0.243409" y="0.559815" width="33.5905" height="22.8805" rx="2.6775" fill="white" stroke="#EAEBED" stroke-width="0.486818"/>
<path fill-rule="evenodd" clip-rule="evenodd" d="M16.0946 15.6593V12.7179H17.6127C18.2347 12.7179 18.7598 12.5095 19.1878 12.0984L19.2905 11.9942C20.0724 11.1431 20.021 9.81716 19.1878 9.02973C18.7712 8.61285 18.2005 8.38704 17.6127 8.39862H15.1758V15.6593H16.0946ZM16.0947 11.8262V9.29022H17.6359C17.9669 9.29022 18.2809 9.4176 18.5149 9.6492C19.0115 10.1356 19.0229 10.9462 18.5434 11.4499C18.3094 11.6989 17.9783 11.8378 17.6359 11.8262H16.0947ZM23.5765 11.0794C23.1828 10.7147 22.6463 10.5294 21.9672 10.5294C21.094 10.5294 20.4377 10.8536 20.0039 11.4963L20.8143 12.0116C21.1111 11.5716 21.5163 11.3516 22.0299 11.3516C22.3552 11.3516 22.6691 11.4731 22.9145 11.6932C23.1542 11.9016 23.2912 12.2027 23.2912 12.5211V12.7354C22.9373 12.5385 22.4922 12.4343 21.9443 12.4343C21.3051 12.4343 20.7915 12.5848 20.4091 12.8917C20.0268 13.1986 19.8327 13.6039 19.8327 14.1192C19.8213 14.5882 20.0211 15.034 20.3749 15.3351C20.7344 15.6593 21.191 15.8214 21.7275 15.8214C22.3609 15.8214 22.8632 15.5377 23.2455 14.9703H23.2855V15.6593H24.1644V12.5964C24.1644 11.9537 23.9703 11.4442 23.5765 11.0794ZM21.0827 14.7442C20.8944 14.6053 20.7802 14.3794 20.7802 14.1363C20.7802 13.8641 20.9058 13.6383 21.1512 13.4588C21.4024 13.2793 21.7163 13.1867 22.0873 13.1867C22.601 13.1809 23.0006 13.2967 23.286 13.5283C23.286 13.922 23.1319 14.2636 22.8294 14.5531C22.5554 14.8311 22.1844 14.9874 21.7962 14.9874C21.5394 14.9932 21.2882 14.9063 21.0827 14.7442ZM26.139 17.8421L29.2094 10.6915H28.2106L26.7896 14.2581H26.7725L25.3172 10.6915H24.3185L26.333 15.3408L25.1916 17.8421H26.139Z" fill="#282739"/>
<path d="M12.924 12.0809C12.924 11.7972 12.9012 11.5135 12.8555 11.2356H8.98047V12.8394H11.2005C11.1092 13.3547 10.8124 13.8179 10.3787 14.1074V15.1496H11.7027C12.4789 14.4259 12.924 13.3547 12.924 12.0809Z" fill="#4285F4"/>
<path d="M8.98017 16.1571C10.0873 16.1571 11.0233 15.7866 11.7024 15.1497L10.3784 14.1075C10.0074 14.3622 9.53375 14.507 8.98017 14.507C7.90724 14.507 6.99983 13.7717 6.67453 12.7874H5.31055V13.8643C6.0068 15.2713 7.42785 16.1571 8.98017 16.1571Z" fill="#34A853"/>
<path d="M6.67428 12.7873C6.50304 12.272 6.50304 11.7104 6.67428 11.1893V10.1182H5.31008C4.72216 11.2935 4.72216 12.6831 5.31008 13.8585L6.67428 12.7873Z" fill="#FBBC04"/>
<path d="M8.98016 9.46973C9.56799 9.45815 10.133 9.68396 10.5553 10.0951L11.731 8.90231C10.9833 8.19594 10.0017 7.80801 8.98016 7.81959C7.42785 7.81959 6.0068 8.71125 5.31055 10.1182L6.67453 11.1951C6.99983 10.2051 7.90724 9.46973 8.98016 9.46973Z" fill="#EA4335"/>
</svg>
