<svg width="288" height="45" viewBox="0 0 288 45" fill="none" xmlns="http://www.w3.org/2000/svg">
<rect width="288" height="45" rx="5" fill="#4B729F"/>
<rect width="288" height="45" rx="5" fill="url(#paint0_linear_291_10666)"/>
<path d="M58.092 18.2V28H59.772V18.2H58.092ZM65.9655 24.08V28H67.5195V23.898C67.5195 23.1327 67.3281 22.5307 66.9455 22.092C66.5628 21.644 66.0075 21.42 65.2795 21.42C64.8408 21.42 64.4581 21.5133 64.1315 21.7C63.8141 21.8867 63.5528 22.1713 63.3475 22.554V21.56H61.8215V28H63.3475V24.08C63.3475 23.7907 63.4035 23.5387 63.5155 23.324C63.6368 23.1 63.8048 22.932 64.0195 22.82C64.2341 22.6987 64.4861 22.638 64.7755 22.638C65.1768 22.638 65.4755 22.7593 65.6715 23.002C65.8675 23.2447 65.9655 23.604 65.9655 24.08ZM69.7444 25.872L68.8624 26.768C69.049 27.0107 69.2824 27.244 69.5624 27.468C69.8424 27.6827 70.1644 27.86 70.5284 28C70.8924 28.1307 71.2984 28.196 71.7464 28.196C72.4464 28.196 73.0017 28.014 73.4124 27.65C73.8324 27.2767 74.0424 26.7867 74.0424 26.18C74.0424 25.788 73.9537 25.4707 73.7764 25.228C73.599 24.9853 73.361 24.78 73.0624 24.612C72.7637 24.444 72.4324 24.29 72.0684 24.15C71.807 24.0473 71.569 23.9493 71.3544 23.856C71.149 23.7627 70.981 23.66 70.8504 23.548C70.729 23.4267 70.6684 23.2913 70.6684 23.142C70.6684 22.9647 70.7384 22.8293 70.8784 22.736C71.0184 22.6427 71.2004 22.596 71.4244 22.596C71.7417 22.596 72.0497 22.6753 72.3484 22.834C72.647 22.9927 72.899 23.198 73.1044 23.45L73.9444 22.554C73.767 22.3393 73.5524 22.148 73.3004 21.98C73.0484 21.812 72.7637 21.6767 72.4464 21.574C72.1384 21.4713 71.807 21.42 71.4524 21.42C71.0604 21.42 70.6917 21.4853 70.3464 21.616C70.0104 21.7373 69.7397 21.9287 69.5344 22.19C69.3384 22.4513 69.2404 22.778 69.2404 23.17C69.2404 23.5527 69.329 23.87 69.5064 24.122C69.693 24.374 69.9264 24.5793 70.2064 24.738C70.4957 24.8873 70.785 25.018 71.0744 25.13C71.3637 25.2327 71.6157 25.3353 71.8304 25.438C72.045 25.5313 72.213 25.648 72.3344 25.788C72.4557 25.9187 72.5164 26.0773 72.5164 26.264C72.5164 26.4787 72.437 26.6467 72.2784 26.768C72.129 26.8893 71.919 26.95 71.6484 26.95C71.4337 26.95 71.219 26.908 71.0044 26.824C70.7897 26.74 70.5797 26.6187 70.3744 26.46C70.169 26.3013 69.959 26.1053 69.7444 25.872ZM74.488 21.56V22.89H78.142V21.56H74.488ZM75.58 19.32V28H77.064V19.32H75.58ZM80.1368 25.998C80.1368 25.7927 80.1834 25.62 80.2767 25.48C80.3794 25.34 80.5288 25.2327 80.7248 25.158C80.9208 25.074 81.1774 25.032 81.4948 25.032C81.8588 25.032 82.2041 25.0787 82.5308 25.172C82.8574 25.2653 83.1654 25.4147 83.4548 25.62V24.85C83.3708 24.7473 83.2261 24.6353 83.0208 24.514C82.8154 24.3833 82.5541 24.2713 82.2368 24.178C81.9288 24.0847 81.5601 24.038 81.1308 24.038C80.3281 24.038 79.7074 24.2247 79.2688 24.598C78.8301 24.962 78.6108 25.4567 78.6108 26.082C78.6108 26.5207 78.7134 26.894 78.9188 27.202C79.1241 27.51 79.3994 27.7433 79.7448 27.902C80.0901 28.0607 80.4634 28.14 80.8648 28.14C81.2381 28.14 81.6021 28.0747 81.9568 27.944C82.3208 27.804 82.6194 27.594 82.8528 27.314C83.0954 27.034 83.2168 26.6887 83.2168 26.278L82.9928 25.438C82.9928 25.7647 82.9181 26.0447 82.7688 26.278C82.6194 26.5113 82.4188 26.6933 82.1668 26.824C81.9241 26.9453 81.6488 27.006 81.3408 27.006C81.1074 27.006 80.8974 26.9687 80.7108 26.894C80.5334 26.8193 80.3934 26.7073 80.2908 26.558C80.1881 26.3993 80.1368 26.2127 80.1368 25.998ZM79.6608 23.24C79.7634 23.1747 79.9081 23.0953 80.0948 23.002C80.2814 22.8993 80.5054 22.8153 80.7668 22.75C81.0374 22.6753 81.3221 22.638 81.6208 22.638C81.8168 22.638 81.9988 22.6567 82.1668 22.694C82.3348 22.7313 82.4794 22.792 82.6008 22.876C82.7314 22.96 82.8294 23.0673 82.8948 23.198C82.9601 23.3287 82.9928 23.4967 82.9928 23.702V28H84.4768V23.408C84.4768 22.9787 84.3601 22.6147 84.1268 22.316C83.9028 22.0173 83.5854 21.7933 83.1748 21.644C82.7641 21.4853 82.2974 21.406 81.7748 21.406C81.1681 21.406 80.6361 21.49 80.1788 21.658C79.7214 21.826 79.3434 21.9987 79.0448 22.176L79.6608 23.24ZM85.8754 28.434C85.8941 28.994 86.0388 29.4887 86.3094 29.918C86.5801 30.3473 86.9628 30.6787 87.4574 30.912C87.9521 31.1547 88.5448 31.276 89.2354 31.276C89.8234 31.276 90.3694 31.15 90.8734 30.898C91.3774 30.6553 91.7834 30.282 92.0914 29.778C92.4088 29.274 92.5674 28.6347 92.5674 27.86V21.56H91.0834V27.86C91.0834 28.3453 90.9901 28.742 90.8034 29.05C90.6261 29.358 90.3928 29.5867 90.1034 29.736C89.8141 29.8853 89.5154 29.96 89.2074 29.96C88.8434 29.96 88.5261 29.89 88.2554 29.75C87.9848 29.6193 87.7748 29.4373 87.6254 29.204C87.4761 28.98 87.3968 28.7233 87.3874 28.434H85.8754ZM85.7494 24.738C85.7494 25.4473 85.8941 26.0493 86.1834 26.544C86.4728 27.0387 86.8554 27.4167 87.3314 27.678C87.8168 27.9393 88.3348 28.07 88.8854 28.07C89.4268 28.07 89.8981 27.9393 90.2994 27.678C90.7101 27.4073 91.0321 27.0247 91.2654 26.53C91.5081 26.026 91.6294 25.4287 91.6294 24.738C91.6294 24.038 91.5081 23.4453 91.2654 22.96C91.0321 22.4653 90.7101 22.0873 90.2994 21.826C89.8981 21.5553 89.4268 21.42 88.8854 21.42C88.3348 21.42 87.8168 21.5507 87.3314 21.812C86.8554 22.0733 86.4728 22.4513 86.1834 22.946C85.8941 23.4313 85.7494 24.0287 85.7494 24.738ZM87.3174 24.738C87.3174 24.3087 87.4061 23.9447 87.5834 23.646C87.7608 23.3473 87.9941 23.1233 88.2834 22.974C88.5821 22.8153 88.9041 22.736 89.2494 22.736C89.4734 22.736 89.6928 22.778 89.9074 22.862C90.1221 22.946 90.3181 23.0767 90.4954 23.254C90.6728 23.422 90.8128 23.632 90.9154 23.884C91.0274 24.1267 91.0834 24.4113 91.0834 24.738C91.0834 25.1767 90.9901 25.5453 90.8034 25.844C90.6261 26.1427 90.3974 26.3713 90.1174 26.53C89.8374 26.6793 89.5481 26.754 89.2494 26.754C88.9041 26.754 88.5821 26.6793 88.2834 26.53C87.9941 26.3713 87.7608 26.1427 87.5834 25.844C87.4061 25.536 87.3174 25.1673 87.3174 24.738ZM95.9406 21.56H94.4426V28H95.9406V21.56ZM97.8586 23.17L98.6006 21.896C98.4512 21.7187 98.2739 21.5927 98.0686 21.518C97.8632 21.4433 97.6439 21.406 97.4106 21.406C97.0839 21.406 96.7666 21.5273 96.4586 21.77C96.1599 22.0033 95.9126 22.3207 95.7166 22.722C95.5299 23.114 95.4366 23.5667 95.4366 24.08L95.9406 24.374C95.9406 24.066 95.9732 23.8 96.0386 23.576C96.1132 23.3427 96.2299 23.1607 96.3886 23.03C96.5472 22.8993 96.7526 22.834 97.0046 22.834C97.1912 22.834 97.3452 22.862 97.4666 22.918C97.5972 22.974 97.7279 23.058 97.8586 23.17ZM100.59 25.998C100.59 25.7927 100.637 25.62 100.73 25.48C100.833 25.34 100.982 25.2327 101.178 25.158C101.374 25.074 101.631 25.032 101.948 25.032C102.312 25.032 102.657 25.0787 102.984 25.172C103.311 25.2653 103.619 25.4147 103.908 25.62V24.85C103.824 24.7473 103.679 24.6353 103.474 24.514C103.269 24.3833 103.007 24.2713 102.69 24.178C102.382 24.0847 102.013 24.038 101.584 24.038C100.781 24.038 100.161 24.2247 99.7219 24.598C99.2832 24.962 99.0639 25.4567 99.0639 26.082C99.0639 26.5207 99.1665 26.894 99.3719 27.202C99.5772 27.51 99.8525 27.7433 100.198 27.902C100.543 28.0607 100.917 28.14 101.318 28.14C101.691 28.14 102.055 28.0747 102.41 27.944C102.774 27.804 103.073 27.594 103.306 27.314C103.549 27.034 103.67 26.6887 103.67 26.278L103.446 25.438C103.446 25.7647 103.371 26.0447 103.222 26.278C103.073 26.5113 102.872 26.6933 102.62 26.824C102.377 26.9453 102.102 27.006 101.794 27.006C101.561 27.006 101.351 26.9687 101.164 26.894C100.987 26.8193 100.847 26.7073 100.744 26.558C100.641 26.3993 100.59 26.2127 100.59 25.998ZM100.114 23.24C100.217 23.1747 100.361 23.0953 100.548 23.002C100.735 22.8993 100.959 22.8153 101.22 22.75C101.491 22.6753 101.775 22.638 102.074 22.638C102.27 22.638 102.452 22.6567 102.62 22.694C102.788 22.7313 102.933 22.792 103.054 22.876C103.185 22.96 103.283 23.0673 103.348 23.198C103.413 23.3287 103.446 23.4967 103.446 23.702V28H104.93V23.408C104.93 22.9787 104.813 22.6147 104.58 22.316C104.356 22.0173 104.039 21.7933 103.628 21.644C103.217 21.4853 102.751 21.406 102.228 21.406C101.621 21.406 101.089 21.49 100.632 21.658C100.175 21.826 99.7965 21.9987 99.4979 22.176L100.114 23.24ZM115.919 23.898C115.919 23.3753 115.839 22.9273 115.681 22.554C115.531 22.1807 115.307 21.9007 115.009 21.714C114.71 21.518 114.327 21.42 113.861 21.42C113.431 21.42 113.044 21.518 112.699 21.714C112.363 21.9007 112.078 22.1853 111.845 22.568C111.705 22.1947 111.476 21.91 111.159 21.714C110.851 21.518 110.463 21.42 109.997 21.42C109.577 21.42 109.217 21.5133 108.919 21.7C108.62 21.8773 108.373 22.1433 108.177 22.498V21.56H106.693V28H108.177V24.08C108.177 23.772 108.228 23.5107 108.331 23.296C108.443 23.0813 108.592 22.918 108.779 22.806C108.975 22.694 109.199 22.638 109.451 22.638C109.824 22.638 110.095 22.7593 110.263 23.002C110.44 23.2353 110.529 23.5947 110.529 24.08V28H112.041V24.08C112.041 23.772 112.092 23.5107 112.195 23.296C112.307 23.0813 112.456 22.918 112.643 22.806C112.839 22.694 113.067 22.638 113.329 22.638C113.693 22.638 113.959 22.7593 114.127 23.002C114.304 23.2353 114.393 23.5947 114.393 24.08V28H115.919V23.898Z" fill="white"/>
<path d="M29.75 13H22.25C18.7988 13 16 15.7988 16 19.25V26.75C16 30.2013 18.7988 33 22.25 33H29.75C33.2013 33 36 30.2013 36 26.75V19.25C36 15.7988 33.2013 13 29.75 13ZM34.125 26.75C34.125 29.1625 32.1625 31.125 29.75 31.125H22.25C19.8375 31.125 17.875 29.1625 17.875 26.75V19.25C17.875 16.8375 19.8375 14.875 22.25 14.875H29.75C32.1625 14.875 34.125 16.8375 34.125 19.25V26.75Z" fill="white"/>
<path d="M26 18C23.2387 18 21 20.2387 21 23C21 25.7613 23.2387 28 26 28C28.7613 28 31 25.7613 31 23C31 20.2387 28.7613 18 26 18ZM26 26.125C24.2775 26.125 22.875 24.7225 22.875 23C22.875 21.2763 24.2775 19.875 26 19.875C27.7225 19.875 29.125 21.2763 29.125 23C29.125 24.7225 27.7225 26.125 26 26.125Z" fill="white"/>
<path d="M31.3747 18.2912C31.7427 18.2912 32.041 17.9929 32.041 17.625C32.041 17.257 31.7427 16.9587 31.3747 16.9587C31.0068 16.9587 30.7085 17.257 30.7085 17.625C30.7085 17.9929 31.0068 18.2912 31.3747 18.2912Z" fill="white"/>
<path opacity="0.7" d="M225.794 20.132L227.964 19.488V28H229.154V18.06L225.794 18.9V20.132ZM232.727 23.1C232.727 22.5307 232.783 22.008 232.895 21.532C233.007 21.0467 233.17 20.6313 233.385 20.286C233.599 19.9313 233.856 19.6607 234.155 19.474C234.463 19.278 234.803 19.18 235.177 19.18C235.559 19.18 235.9 19.278 236.199 19.474C236.497 19.6607 236.754 19.9313 236.969 20.286C237.183 20.6313 237.347 21.0467 237.459 21.532C237.571 22.008 237.627 22.5307 237.627 23.1C237.627 23.6693 237.571 24.1967 237.459 24.682C237.347 25.158 237.183 25.5733 236.969 25.928C236.754 26.2733 236.497 26.544 236.199 26.74C235.9 26.9267 235.559 27.02 235.177 27.02C234.803 27.02 234.463 26.9267 234.155 26.74C233.856 26.544 233.599 26.2733 233.385 25.928C233.17 25.5733 233.007 25.158 232.895 24.682C232.783 24.1967 232.727 23.6693 232.727 23.1ZM231.537 23.1C231.537 24.08 231.691 24.948 231.999 25.704C232.307 26.46 232.731 27.0573 233.273 27.496C233.823 27.9253 234.458 28.14 235.177 28.14C235.895 28.14 236.525 27.9253 237.067 27.496C237.617 27.0573 238.047 26.46 238.355 25.704C238.663 24.948 238.817 24.08 238.817 23.1C238.817 22.12 238.663 21.252 238.355 20.496C238.047 19.74 237.617 19.1473 237.067 18.718C236.525 18.2793 235.895 18.06 235.177 18.06C234.458 18.06 233.823 18.2793 233.273 18.718C232.731 19.1473 232.307 19.74 231.999 20.496C231.691 21.252 231.537 22.12 231.537 23.1ZM245.402 24.78C245.402 24.332 245.496 23.9353 245.682 23.59C245.878 23.2353 246.14 22.96 246.466 22.764C246.802 22.568 247.18 22.47 247.6 22.47C248.02 22.47 248.394 22.568 248.72 22.764C249.056 22.96 249.318 23.2353 249.504 23.59C249.7 23.9353 249.798 24.332 249.798 24.78C249.798 25.228 249.7 25.6247 249.504 25.97C249.318 26.306 249.056 26.572 248.72 26.768C248.394 26.964 248.02 27.062 247.6 27.062C247.18 27.062 246.802 26.964 246.466 26.768C246.14 26.572 245.878 26.306 245.682 25.97C245.496 25.6247 245.402 25.228 245.402 24.78ZM248.188 18.2L244.884 22.75C244.698 23.0113 244.548 23.3147 244.436 23.66C244.324 24.0053 244.268 24.3787 244.268 24.78C244.268 25.452 244.413 26.04 244.702 26.544C245.001 27.048 245.402 27.44 245.906 27.72C246.41 28 246.975 28.14 247.6 28.14C248.235 28.14 248.8 28 249.294 27.72C249.798 27.44 250.195 27.048 250.484 26.544C250.783 26.04 250.932 25.452 250.932 24.78C250.932 24.332 250.858 23.9167 250.708 23.534C250.559 23.142 250.349 22.8013 250.078 22.512C249.817 22.2227 249.509 21.9987 249.154 21.84C248.809 21.6813 248.436 21.602 248.034 21.602C247.717 21.602 247.432 21.6393 247.18 21.714C246.938 21.7887 246.723 21.9427 246.536 22.176L246.62 22.246L249.686 18.2H248.188ZM253.385 23.1C253.385 22.5307 253.441 22.008 253.553 21.532C253.665 21.0467 253.828 20.6313 254.043 20.286C254.257 19.9313 254.514 19.6607 254.813 19.474C255.121 19.278 255.461 19.18 255.835 19.18C256.217 19.18 256.558 19.278 256.857 19.474C257.155 19.6607 257.412 19.9313 257.627 20.286C257.841 20.6313 258.005 21.0467 258.117 21.532C258.229 22.008 258.285 22.5307 258.285 23.1C258.285 23.6693 258.229 24.1967 258.117 24.682C258.005 25.158 257.841 25.5733 257.627 25.928C257.412 26.2733 257.155 26.544 256.857 26.74C256.558 26.9267 256.217 27.02 255.835 27.02C255.461 27.02 255.121 26.9267 254.813 26.74C254.514 26.544 254.257 26.2733 254.043 25.928C253.828 25.5733 253.665 25.158 253.553 24.682C253.441 24.1967 253.385 23.6693 253.385 23.1ZM252.195 23.1C252.195 24.08 252.349 24.948 252.657 25.704C252.965 26.46 253.389 27.0573 253.931 27.496C254.481 27.9253 255.116 28.14 255.835 28.14C256.553 28.14 257.183 27.9253 257.725 27.496C258.275 27.0573 258.705 26.46 259.013 25.704C259.321 24.948 259.475 24.08 259.475 23.1C259.475 22.12 259.321 21.252 259.013 20.496C258.705 19.74 258.275 19.1473 257.725 18.718C257.183 18.2793 256.553 18.06 255.835 18.06C255.116 18.06 254.481 18.2793 253.931 18.718C253.389 19.1473 252.965 19.74 252.657 20.496C252.349 21.252 252.195 22.12 252.195 23.1ZM260.309 28H267.225V26.88H262.759L265.881 23.702C266.264 23.31 266.577 22.8667 266.819 22.372C267.062 21.8773 267.183 21.378 267.183 20.874C267.183 20.5753 267.123 20.2627 267.001 19.936C266.88 19.6093 266.693 19.306 266.441 19.026C266.189 18.7367 265.867 18.5033 265.475 18.326C265.083 18.1393 264.617 18.046 264.075 18.046C263.403 18.046 262.825 18.1953 262.339 18.494C261.863 18.7833 261.499 19.194 261.247 19.726C260.995 20.2487 260.869 20.86 260.869 21.56H262.059C262.059 21.0653 262.139 20.6407 262.297 20.286C262.456 19.922 262.685 19.6467 262.983 19.46C263.291 19.264 263.655 19.166 264.075 19.166C264.374 19.166 264.64 19.2173 264.873 19.32C265.107 19.4227 265.303 19.558 265.461 19.726C265.629 19.894 265.755 20.0807 265.839 20.286C265.923 20.4913 265.965 20.7013 265.965 20.916C265.965 21.1773 265.923 21.4293 265.839 21.672C265.765 21.9053 265.648 22.1387 265.489 22.372C265.34 22.596 265.158 22.8247 264.943 23.058L260.309 28Z" fill="white"/>
<defs>
<linearGradient id="paint0_linear_291_10666" x1="-42.0923" y1="39" x2="-15.0219" y2="-71.6492" gradientUnits="userSpaceOnUse">
<stop stop-color="#FFC107"/>
<stop offset="0.507" stop-color="#F44336"/>
<stop offset="0.99" stop-color="#9C27B0"/>
</linearGradient>
</defs>
</svg>
