<svg width="7" height="12" viewBox="0 0 7 12" fill="none" xmlns="http://www.w3.org/2000/svg">
<path d="M6.89846 1.9843V0.927467C6.89846 0.835866 6.79318 0.78528 6.72209 0.841334L0.558809 5.6552C0.506443 5.69592 0.464071 5.74807 0.434924 5.80766C0.405777 5.86725 0.390625 5.93271 0.390625 5.99905C0.390625 6.06539 0.405777 6.13085 0.434924 6.19044C0.464071 6.25003 0.506443 6.30217 0.558809 6.3429L6.72209 11.1568C6.79455 11.2128 6.89846 11.1622 6.89846 11.0706V10.0138C6.89846 9.9468 6.86701 9.88254 6.81506 9.84153L1.89318 5.99973L6.81506 2.15657C6.86701 2.11555 6.89846 2.0513 6.89846 1.9843V1.9843Z" fill="#5D6C7B"/>
</svg>
