<svg width="16" height="18" viewBox="0 0 16 18" fill="none" xmlns="http://www.w3.org/2000/svg">
<path d="M13.3357 2.21032C11.9104 0.784972 10.0152 0 7.99958 0C5.98389 0 4.08882 0.784937 2.66341 2.21032C1.2381 3.63563 0.453125 5.53063 0.453125 7.54632C0.453125 9.56201 1.2381 11.4571 2.66341 12.8824L7.62672 17.8456C7.72969 17.9486 7.86465 18 7.99958 18C8.13455 18 8.26952 17.9485 8.37245 17.8456L13.3356 12.8825C14.7609 11.4571 15.5459 9.56205 15.5459 7.54635C15.5459 5.53059 14.761 3.63559 13.3357 2.21032ZM10.3695 9.91621C9.73652 10.5492 8.89488 10.8979 7.99962 10.8979C7.10436 10.8979 6.26272 10.5493 5.62973 9.91625C4.99667 9.28322 4.64806 8.44158 4.64806 7.54632C4.64806 6.6511 4.99667 5.80945 5.62973 5.17639C6.26272 4.54337 7.10436 4.19475 7.99962 4.19475C8.89488 4.19475 9.73652 4.54337 10.3695 5.17639C11.0026 5.80938 11.3512 6.65103 11.3512 7.54628C11.3512 8.44154 11.0025 9.28322 10.3695 9.91621Z" fill="#6F73EE"/>
</svg>
