<svg width="35" height="24" viewBox="0 0 35 24" fill="none" xmlns="http://www.w3.org/2000/svg">
<rect x="1.07935" y="0.559815" width="33.5905" height="22.8805" rx="2.6775" fill="white" stroke="#EAEBED" stroke-width="0.486818"/>
<path fill-rule="evenodd" clip-rule="evenodd" d="M18.0666 17.2391C16.9064 18.2402 15.4016 18.8446 13.7572 18.8446C10.0878 18.8446 7.11328 15.8355 7.11328 12.1236C7.11328 8.41168 10.0878 5.40259 13.7572 5.40259C15.4017 5.40259 16.9067 6.00702 18.0668 7.00827C19.227 6.00715 20.7318 5.40281 22.3763 5.40281C26.0456 5.40281 29.0201 8.4119 29.0201 12.1238C29.0201 15.8357 26.0456 18.8448 22.3763 18.8448C20.7317 18.8448 19.2268 18.2404 18.0666 17.2391Z" fill="#ED0006"/>
<path fill-rule="evenodd" clip-rule="evenodd" d="M18.0664 17.2395C19.4949 16.0068 20.4008 14.1724 20.4008 12.1241C20.4008 10.0757 19.4949 8.24137 18.0664 7.00862C19.2266 6.00746 20.7315 5.40308 22.3759 5.40308C26.0452 5.40308 29.0198 8.41217 29.0198 12.1241C29.0198 15.836 26.0452 18.8451 22.3759 18.8451C20.7315 18.8451 19.2266 18.2407 18.0664 17.2395Z" fill="#F9A000"/>
<path fill-rule="evenodd" clip-rule="evenodd" d="M18.0667 17.2391C19.4952 16.0064 20.401 14.172 20.401 12.1237C20.401 10.0754 19.4952 8.24106 18.0667 7.0083C16.6382 8.24106 15.7324 10.0754 15.7324 12.1237C15.7324 14.172 16.6382 16.0064 18.0667 17.2391Z" fill="#FF5E00"/>
</svg>
