<svg width="288" height="45" viewBox="0 0 288 45" fill="none" xmlns="http://www.w3.org/2000/svg">
<rect width="288" height="45" rx="5" fill="#4B729F"/>
<g clip-path="url(#clip0_291_10648)">
<path d="M32.5958 23.8567C32.2725 23.4484 32.365 23.2667 32.5958 22.9017C32.6 22.8976 35.2692 19.2092 35.5442 17.9584L35.5458 17.9576C35.6825 17.5017 35.5458 17.1667 34.885 17.1667H32.6983C32.1417 17.1667 31.885 17.4542 31.7475 17.7759C31.7475 17.7759 30.6342 20.4409 29.0592 22.1684C28.5508 22.6676 28.3158 22.8276 28.0383 22.8276C27.9017 22.8276 27.6892 22.6676 27.6892 22.2117V17.9576C27.6892 17.4109 27.5333 17.1667 27.0725 17.1667H23.6342C23.285 17.1667 23.0775 17.4217 23.0775 17.6592C23.0775 18.1776 23.865 18.2967 23.9467 19.7551V22.9192C23.9467 23.6126 23.8208 23.7401 23.5417 23.7401C22.7983 23.7401 20.9942 21.0642 19.925 18.0017C19.7092 17.4076 19.4983 17.1676 18.9375 17.1676H16.75C16.1258 17.1676 16 17.4551 16 17.7767C16 18.3451 16.7433 21.1709 19.4567 24.9042C21.265 27.4526 23.8117 28.8334 26.1283 28.8334C27.5208 28.8334 27.6908 28.5267 27.6908 27.9992C27.6908 25.5642 27.565 25.3342 28.2625 25.3342C28.5858 25.3342 29.1425 25.4942 30.4425 26.7234C31.9283 28.1809 32.1725 28.8334 33.0042 28.8334H35.1908C35.8142 28.8334 36.13 28.5267 35.9483 27.9217C35.5325 26.6492 32.7225 24.0317 32.5958 23.8567Z" fill="white"/>
</g>
<path d="M59.352 22.946H61.046C61.6713 22.946 62.2173 22.8573 62.684 22.68C63.1507 22.5027 63.5147 22.246 63.776 21.91C64.0467 21.5647 64.182 21.1493 64.182 20.664C64.182 20.104 64.0467 19.642 63.776 19.278C63.5147 18.914 63.1507 18.6433 62.684 18.466C62.2173 18.2887 61.6713 18.2 61.046 18.2H58.092V28H61.214C61.914 28 62.5253 27.902 63.048 27.706C63.58 27.5007 63.9953 27.188 64.294 26.768C64.5927 26.348 64.742 25.816 64.742 25.172C64.742 24.7053 64.6487 24.304 64.462 23.968C64.2753 23.632 64.0187 23.3567 63.692 23.142C63.3653 22.9273 62.9873 22.7687 62.558 22.666C62.138 22.554 61.69 22.498 61.214 22.498H59.352V23.422H61.116C61.396 23.422 61.6527 23.4547 61.886 23.52C62.1193 23.576 62.3247 23.674 62.502 23.814C62.6793 23.9447 62.8147 24.108 62.908 24.304C63.0013 24.5 63.048 24.7333 63.048 25.004C63.048 25.368 62.964 25.6713 62.796 25.914C62.628 26.1473 62.3993 26.3247 62.11 26.446C61.8207 26.5673 61.4893 26.628 61.116 26.628H59.744V19.558H60.934C61.4007 19.558 61.774 19.67 62.054 19.894C62.3433 20.118 62.488 20.4353 62.488 20.846C62.488 21.1167 62.4227 21.35 62.292 21.546C62.1613 21.7327 61.9793 21.8773 61.746 21.98C61.5127 22.0827 61.242 22.134 60.934 22.134H59.352V22.946ZM66.3182 21.56V28H67.8022V21.56H66.3182ZM70.1682 21.56L67.3962 24.22L70.4622 28H72.3102L69.2442 24.22L72.0302 21.56H70.1682ZM72.6108 24.78C72.6108 25.4333 72.7601 26.0167 73.0588 26.53C73.3668 27.034 73.7821 27.4307 74.3048 27.72C74.8368 28 75.4294 28.14 76.0828 28.14C76.7454 28.14 77.3381 28 77.8608 27.72C78.3834 27.4307 78.7941 27.034 79.0928 26.53C79.4008 26.0167 79.5548 25.4333 79.5548 24.78C79.5548 24.1173 79.4008 23.534 79.0928 23.03C78.7941 22.526 78.3834 22.134 77.8608 21.854C77.3381 21.5647 76.7454 21.42 76.0828 21.42C75.4294 21.42 74.8368 21.5647 74.3048 21.854C73.7821 22.134 73.3668 22.526 73.0588 23.03C72.7601 23.534 72.6108 24.1173 72.6108 24.78ZM74.1648 24.78C74.1648 24.3787 74.2488 24.024 74.4168 23.716C74.5848 23.408 74.8134 23.17 75.1028 23.002C75.3921 22.834 75.7188 22.75 76.0828 22.75C76.4468 22.75 76.7734 22.834 77.0628 23.002C77.3521 23.17 77.5808 23.408 77.7488 23.716C77.9168 24.024 78.0008 24.3787 78.0008 24.78C78.0008 25.1813 77.9168 25.536 77.7488 25.844C77.5808 26.1427 77.3521 26.3807 77.0628 26.558C76.7734 26.726 76.4468 26.81 76.0828 26.81C75.7188 26.81 75.3921 26.726 75.1028 26.558C74.8134 26.3807 74.5848 26.1427 74.4168 25.844C74.2488 25.536 74.1648 25.1813 74.1648 24.78ZM81.6611 25.228H86.5891V23.968H81.6611V25.228ZM85.7771 21.56V28H87.2611V21.56H85.7771ZM81.0031 21.56V28H82.4871V21.56H81.0031ZM88.2966 21.56V22.89H92.3706V21.56H88.2966ZM89.5986 21.84V28H91.0826V21.84H89.5986ZM94.3555 26.096C94.3555 25.872 94.4115 25.6807 94.5235 25.522C94.6355 25.354 94.7988 25.228 95.0135 25.144C95.2282 25.0507 95.4942 25.004 95.8115 25.004C96.2035 25.004 96.5488 25.0553 96.8475 25.158C97.1462 25.2513 97.4402 25.4053 97.7295 25.62V24.822C97.6548 24.7287 97.5195 24.6213 97.3235 24.5C97.1275 24.3787 96.8802 24.2713 96.5815 24.178C96.2922 24.0847 95.9608 24.038 95.5875 24.038C95.0275 24.038 94.5375 24.122 94.1175 24.29C93.7068 24.458 93.3895 24.7007 93.1655 25.018C92.9415 25.3353 92.8295 25.7133 92.8295 26.152C92.8295 26.5907 92.9275 26.9593 93.1235 27.258C93.3288 27.5473 93.5995 27.7667 93.9355 27.916C94.2808 28.0653 94.6635 28.14 95.0835 28.14C95.5315 28.14 95.9375 28.0653 96.3015 27.916C96.6655 27.7573 96.9548 27.5333 97.1695 27.244C97.3842 26.9453 97.4915 26.5907 97.4915 26.18L97.2675 25.438C97.2675 25.8207 97.1928 26.124 97.0435 26.348C96.8942 26.572 96.6888 26.7353 96.4275 26.838C96.1662 26.9407 95.8722 26.992 95.5455 26.992C95.3308 26.992 95.1302 26.9593 94.9435 26.894C94.7662 26.8193 94.6215 26.7167 94.5095 26.586C94.4068 26.4553 94.3555 26.292 94.3555 26.096ZM94.0335 23.254C94.1362 23.1887 94.2808 23.1093 94.4675 23.016C94.6635 22.9133 94.8875 22.8247 95.1395 22.75C95.4008 22.6753 95.6855 22.638 95.9935 22.638C96.3482 22.638 96.6468 22.722 96.8895 22.89C97.1415 23.0487 97.2675 23.2773 97.2675 23.576V28H98.7515V23.408C98.7515 22.9787 98.6348 22.6147 98.4015 22.316C98.1775 22.0173 97.8648 21.7933 97.4635 21.644C97.0622 21.4853 96.5955 21.406 96.0635 21.406C95.4848 21.406 94.9715 21.49 94.5235 21.658C94.0755 21.826 93.7068 21.9987 93.4175 22.176L94.0335 23.254ZM100.471 21.56V28H101.955V21.56H100.471ZM104.321 21.56L101.549 24.22L104.615 28H106.463L103.397 24.22L106.183 21.56H104.321ZM106.562 21.56V22.89H110.636V21.56H106.562ZM107.864 21.84V28H109.348V21.84H107.864ZM111.884 25.13H117.54C117.549 25.046 117.554 24.9713 117.554 24.906C117.554 24.8313 117.554 24.766 117.554 24.71C117.554 24.0287 117.423 23.4453 117.162 22.96C116.91 22.4653 116.541 22.0873 116.056 21.826C115.58 21.5553 115.006 21.42 114.334 21.42C113.727 21.42 113.191 21.532 112.724 21.756C112.257 21.98 111.879 22.2927 111.59 22.694C111.31 23.0953 111.123 23.562 111.03 24.094C111.011 24.206 110.997 24.318 110.988 24.43C110.979 24.542 110.974 24.6587 110.974 24.78C110.974 25.424 111.109 26.0027 111.38 26.516C111.651 27.02 112.033 27.4167 112.528 27.706C113.032 27.9953 113.611 28.14 114.264 28.14C114.852 28.14 115.342 28.07 115.734 27.93C116.135 27.7807 116.476 27.5753 116.756 27.314C117.036 27.0527 117.283 26.7447 117.498 26.39L116.182 25.872C116.061 26.0773 115.911 26.2593 115.734 26.418C115.557 26.5673 115.351 26.684 115.118 26.768C114.894 26.852 114.633 26.894 114.334 26.894C113.979 26.894 113.662 26.8193 113.382 26.67C113.111 26.5113 112.897 26.2733 112.738 25.956C112.589 25.6387 112.514 25.2467 112.514 24.78L112.542 24.388C112.542 24.0147 112.617 23.6927 112.766 23.422C112.925 23.142 113.139 22.932 113.41 22.792C113.681 22.6427 113.984 22.568 114.32 22.568C114.647 22.568 114.922 22.6333 115.146 22.764C115.37 22.8853 115.543 23.0627 115.664 23.296C115.795 23.52 115.879 23.7813 115.916 24.08H111.884V25.13Z" fill="white"/>
<path opacity="0.7" d="M235.271 23.17C235.905 23.17 236.461 23.058 236.937 22.834C237.413 22.61 237.786 22.3067 238.057 21.924C238.327 21.5413 238.463 21.1213 238.463 20.664C238.463 20.1973 238.351 19.768 238.127 19.376C237.912 18.984 237.599 18.6667 237.189 18.424C236.787 18.1813 236.307 18.06 235.747 18.06C235.215 18.06 234.739 18.172 234.319 18.396C233.908 18.6107 233.581 18.9093 233.339 19.292C233.105 19.6747 232.989 20.1227 232.989 20.636H234.123C234.123 20.2067 234.281 19.852 234.599 19.572C234.916 19.2827 235.303 19.138 235.761 19.138C236.087 19.138 236.358 19.2033 236.573 19.334C236.797 19.4647 236.965 19.6513 237.077 19.894C237.189 20.1273 237.245 20.398 237.245 20.706C237.245 20.9393 237.198 21.1587 237.105 21.364C237.021 21.5693 236.895 21.7513 236.727 21.91C236.559 22.0593 236.353 22.1807 236.111 22.274C235.868 22.358 235.588 22.4 235.271 22.4V23.17ZM235.691 28.14C236.279 28.14 236.801 28.028 237.259 27.804C237.716 27.58 238.075 27.2627 238.337 26.852C238.607 26.4413 238.743 25.9607 238.743 25.41C238.743 24.9247 238.649 24.5093 238.463 24.164C238.285 23.8187 238.033 23.5387 237.707 23.324C237.389 23.1 237.021 22.9367 236.601 22.834C236.19 22.7313 235.747 22.68 235.271 22.68V23.45C235.588 23.45 235.882 23.4873 236.153 23.562C236.423 23.6367 236.661 23.7533 236.867 23.912C237.072 24.0613 237.231 24.2527 237.343 24.486C237.464 24.71 237.525 24.9713 237.525 25.27C237.525 25.6247 237.45 25.9327 237.301 26.194C237.151 26.4553 236.937 26.6607 236.657 26.81C236.386 26.95 236.064 27.02 235.691 27.02C235.317 27.02 234.986 26.95 234.697 26.81C234.407 26.67 234.179 26.4787 234.011 26.236C233.852 25.9933 233.773 25.718 233.773 25.41H232.569C232.569 25.7927 232.643 26.152 232.793 26.488C232.942 26.8147 233.152 27.104 233.423 27.356C233.693 27.5987 234.02 27.79 234.403 27.93C234.785 28.07 235.215 28.14 235.691 28.14ZM247.11 23.17C247.745 23.17 248.3 23.058 248.776 22.834C249.252 22.61 249.626 22.3067 249.896 21.924C250.167 21.5413 250.302 21.1213 250.302 20.664C250.302 20.1973 250.19 19.768 249.966 19.376C249.752 18.984 249.439 18.6667 249.028 18.424C248.627 18.1813 248.146 18.06 247.586 18.06C247.054 18.06 246.578 18.172 246.158 18.396C245.748 18.6107 245.421 18.9093 245.178 19.292C244.945 19.6747 244.828 20.1227 244.828 20.636H245.962C245.962 20.2067 246.121 19.852 246.438 19.572C246.756 19.2827 247.143 19.138 247.6 19.138C247.927 19.138 248.198 19.2033 248.412 19.334C248.636 19.4647 248.804 19.6513 248.916 19.894C249.028 20.1273 249.084 20.398 249.084 20.706C249.084 20.9393 249.038 21.1587 248.944 21.364C248.86 21.5693 248.734 21.7513 248.566 21.91C248.398 22.0593 248.193 22.1807 247.95 22.274C247.708 22.358 247.428 22.4 247.11 22.4V23.17ZM247.53 28.14C248.118 28.14 248.641 28.028 249.098 27.804C249.556 27.58 249.915 27.2627 250.176 26.852C250.447 26.4413 250.582 25.9607 250.582 25.41C250.582 24.9247 250.489 24.5093 250.302 24.164C250.125 23.8187 249.873 23.5387 249.546 23.324C249.229 23.1 248.86 22.9367 248.44 22.834C248.03 22.7313 247.586 22.68 247.11 22.68V23.45C247.428 23.45 247.722 23.4873 247.992 23.562C248.263 23.6367 248.501 23.7533 248.706 23.912C248.912 24.0613 249.07 24.2527 249.182 24.486C249.304 24.71 249.364 24.9713 249.364 25.27C249.364 25.6247 249.29 25.9327 249.14 26.194C248.991 26.4553 248.776 26.6607 248.496 26.81C248.226 26.95 247.904 27.02 247.53 27.02C247.157 27.02 246.826 26.95 246.536 26.81C246.247 26.67 246.018 26.4787 245.85 26.236C245.692 25.9933 245.612 25.718 245.612 25.41H244.408C244.408 25.7927 244.483 26.152 244.632 26.488C244.782 26.8147 244.992 27.104 245.262 27.356C245.533 27.5987 245.86 27.79 246.242 27.93C246.625 28.07 247.054 28.14 247.53 28.14ZM252.961 23.1C252.961 22.5307 253.017 22.008 253.129 21.532C253.241 21.0467 253.404 20.6313 253.619 20.286C253.834 19.9313 254.09 19.6607 254.389 19.474C254.697 19.278 255.038 19.18 255.411 19.18C255.794 19.18 256.134 19.278 256.433 19.474C256.732 19.6607 256.988 19.9313 257.203 20.286C257.418 20.6313 257.581 21.0467 257.693 21.532C257.805 22.008 257.861 22.5307 257.861 23.1C257.861 23.6693 257.805 24.1967 257.693 24.682C257.581 25.158 257.418 25.5733 257.203 25.928C256.988 26.2733 256.732 26.544 256.433 26.74C256.134 26.9267 255.794 27.02 255.411 27.02C255.038 27.02 254.697 26.9267 254.389 26.74C254.09 26.544 253.834 26.2733 253.619 25.928C253.404 25.5733 253.241 25.158 253.129 24.682C253.017 24.1967 252.961 23.6693 252.961 23.1ZM251.771 23.1C251.771 24.08 251.925 24.948 252.233 25.704C252.541 26.46 252.966 27.0573 253.507 27.496C254.058 27.9253 254.692 28.14 255.411 28.14C256.13 28.14 256.76 27.9253 257.301 27.496C257.852 27.0573 258.281 26.46 258.589 25.704C258.897 24.948 259.051 24.08 259.051 23.1C259.051 22.12 258.897 21.252 258.589 20.496C258.281 19.74 257.852 19.1473 257.301 18.718C256.76 18.2793 256.13 18.06 255.411 18.06C254.692 18.06 254.058 18.2793 253.507 18.718C252.966 19.1473 252.541 19.74 252.233 20.496C251.925 21.252 251.771 22.12 251.771 23.1ZM261.355 23.1C261.355 22.5307 261.411 22.008 261.523 21.532C261.635 21.0467 261.799 20.6313 262.013 20.286C262.228 19.9313 262.485 19.6607 262.783 19.474C263.091 19.278 263.432 19.18 263.805 19.18C264.188 19.18 264.529 19.278 264.827 19.474C265.126 19.6607 265.383 19.9313 265.597 20.286C265.812 20.6313 265.975 21.0467 266.087 21.532C266.199 22.008 266.255 22.5307 266.255 23.1C266.255 23.6693 266.199 24.1967 266.087 24.682C265.975 25.158 265.812 25.5733 265.597 25.928C265.383 26.2733 265.126 26.544 264.827 26.74C264.529 26.9267 264.188 27.02 263.805 27.02C263.432 27.02 263.091 26.9267 262.783 26.74C262.485 26.544 262.228 26.2733 262.013 25.928C261.799 25.5733 261.635 25.158 261.523 24.682C261.411 24.1967 261.355 23.6693 261.355 23.1ZM260.165 23.1C260.165 24.08 260.319 24.948 260.627 25.704C260.935 26.46 261.36 27.0573 261.901 27.496C262.452 27.9253 263.087 28.14 263.805 28.14C264.524 28.14 265.154 27.9253 265.695 27.496C266.246 27.0573 266.675 26.46 266.983 25.704C267.291 24.948 267.445 24.08 267.445 23.1C267.445 22.12 267.291 21.252 266.983 20.496C266.675 19.74 266.246 19.1473 265.695 18.718C265.154 18.2793 264.524 18.06 263.805 18.06C263.087 18.06 262.452 18.2793 261.901 18.718C261.36 19.1473 260.935 19.74 260.627 20.496C260.319 21.252 260.165 22.12 260.165 23.1Z" fill="white"/>
<defs>
<clipPath id="clip0_291_10648">
<rect width="20" height="20" fill="white" transform="translate(16 13)"/>
</clipPath>
</defs>
</svg>
