<svg width="288" height="45" viewBox="0 0 288 45" fill="none" xmlns="http://www.w3.org/2000/svg">
<rect width="288" height="45" rx="5" fill="#E53935"/>
<g clip-path="url(#clip0_291_10660)">
<path d="M16.4352 27.8952C16.8435 29.3435 18.0927 29.6085 18.176 29.6593C20.2319 30.2193 31.7552 30.221 33.8419 29.6593C35.271 29.246 35.5335 27.9785 35.5827 27.8952C36.1269 25.0002 36.1627 21.226 35.5577 17.941L35.5827 18.1043C35.1744 16.656 33.9252 16.391 33.8419 16.3402C31.8135 15.7893 20.2602 15.7685 18.176 16.3402C16.7469 16.7543 16.4844 18.021 16.4352 18.1043C15.8527 21.1468 15.8235 24.6377 16.4352 27.8952ZM24.0069 26.0427V19.9652L29.2285 23.0085L24.0069 26.0427Z" fill="white"/>
</g>
<path d="M63.482 18.2L61.2 22.386L58.932 18.2H57.042L60.374 23.884V28H62.054V23.87L65.372 18.2H63.482ZM64.4897 24.78C64.4897 25.4333 64.639 26.0167 64.9377 26.53C65.2457 27.034 65.661 27.4307 66.1837 27.72C66.7157 28 67.3083 28.14 67.9617 28.14C68.6243 28.14 69.217 28 69.7397 27.72C70.2623 27.4307 70.673 27.034 70.9717 26.53C71.2797 26.0167 71.4337 25.4333 71.4337 24.78C71.4337 24.1173 71.2797 23.534 70.9717 23.03C70.673 22.526 70.2623 22.134 69.7397 21.854C69.217 21.5647 68.6243 21.42 67.9617 21.42C67.3083 21.42 66.7157 21.5647 66.1837 21.854C65.661 22.134 65.2457 22.526 64.9377 23.03C64.639 23.534 64.4897 24.1173 64.4897 24.78ZM66.0437 24.78C66.0437 24.3787 66.1277 24.024 66.2957 23.716C66.4637 23.408 66.6923 23.17 66.9817 23.002C67.271 22.834 67.5977 22.75 67.9617 22.75C68.3257 22.75 68.6523 22.834 68.9417 23.002C69.231 23.17 69.4597 23.408 69.6277 23.716C69.7957 24.024 69.8797 24.3787 69.8797 24.78C69.8797 25.1813 69.7957 25.536 69.6277 25.844C69.4597 26.1427 69.231 26.3807 68.9417 26.558C68.6523 26.726 68.3257 26.81 67.9617 26.81C67.5977 26.81 67.271 26.726 66.9817 26.558C66.6923 26.3807 66.4637 26.1427 66.2957 25.844C66.1277 25.536 66.0437 25.1813 66.0437 24.78ZM74.436 25.48V21.56H72.882V25.648C72.882 26.4133 73.0733 27.02 73.456 27.468C73.848 27.916 74.4033 28.14 75.122 28.14C75.57 28.14 75.9527 28.0467 76.27 27.86C76.5967 27.664 76.8627 27.3793 77.068 27.006V28H78.58V21.56H77.068V25.48C77.068 25.7693 77.0073 26.0213 76.886 26.236C76.7647 26.4507 76.5967 26.6187 76.382 26.74C76.1673 26.8613 75.92 26.922 75.64 26.922C75.2293 26.922 74.926 26.796 74.73 26.544C74.534 26.292 74.436 25.9373 74.436 25.48ZM78.5358 19.726H81.1258V28H82.7778V19.726H85.3678V18.2H78.5358V19.726ZM86.8774 25.48V21.56H85.3234V25.648C85.3234 26.4133 85.5148 27.02 85.8974 27.468C86.2894 27.916 86.8448 28.14 87.5634 28.14C88.0114 28.14 88.3941 28.0467 88.7114 27.86C89.0381 27.664 89.3041 27.3793 89.5094 27.006V28H91.0214V21.56H89.5094V25.48C89.5094 25.7693 89.4488 26.0213 89.3274 26.236C89.2061 26.4507 89.0381 26.6187 88.8234 26.74C88.6088 26.8613 88.3614 26.922 88.0814 26.922C87.6708 26.922 87.3674 26.796 87.1714 26.544C86.9754 26.292 86.8774 25.9373 86.8774 25.48ZM94.4223 17.08H92.8963V28H94.4223V17.08ZM99.7563 24.78C99.7563 24.0707 99.6117 23.4687 99.3223 22.974C99.033 22.47 98.6503 22.0873 98.1743 21.826C97.6983 21.5553 97.1803 21.42 96.6203 21.42C96.0883 21.42 95.617 21.5553 95.2063 21.826C94.7957 22.0967 94.469 22.484 94.2263 22.988C93.993 23.4827 93.8763 24.08 93.8763 24.78C93.8763 25.4707 93.993 26.068 94.2263 26.572C94.469 27.076 94.7957 27.4633 95.2063 27.734C95.617 28.0047 96.0883 28.14 96.6203 28.14C97.1803 28.14 97.6983 28.0093 98.1743 27.748C98.6503 27.4773 99.033 27.09 99.3223 26.586C99.6117 26.082 99.7563 25.48 99.7563 24.78ZM98.1883 24.78C98.1883 25.2093 98.0997 25.578 97.9223 25.886C97.745 26.194 97.5117 26.4273 97.2223 26.586C96.933 26.7447 96.611 26.824 96.2563 26.824C95.9577 26.824 95.6683 26.7447 95.3883 26.586C95.1083 26.4273 94.875 26.1987 94.6883 25.9C94.511 25.592 94.4223 25.2187 94.4223 24.78C94.4223 24.3413 94.511 23.9727 94.6883 23.674C94.875 23.366 95.1083 23.1327 95.3883 22.974C95.6683 22.8153 95.9577 22.736 96.2563 22.736C96.611 22.736 96.933 22.8153 97.2223 22.974C97.5117 23.1327 97.745 23.366 97.9223 23.674C98.0997 23.982 98.1883 24.3507 98.1883 24.78ZM103.996 28.14C104.743 28.14 105.382 27.9953 105.914 27.706C106.446 27.4073 106.885 26.9687 107.23 26.39L105.914 25.872C105.718 26.2173 105.466 26.474 105.158 26.642C104.85 26.81 104.486 26.894 104.066 26.894C103.674 26.894 103.343 26.81 103.072 26.642C102.802 26.474 102.592 26.2267 102.442 25.9C102.302 25.5733 102.237 25.1813 102.246 24.724C102.246 24.2573 102.316 23.8653 102.456 23.548C102.606 23.2307 102.811 22.988 103.072 22.82C103.343 22.652 103.67 22.568 104.052 22.568C104.37 22.568 104.645 22.638 104.878 22.778C105.121 22.918 105.308 23.114 105.438 23.366C105.578 23.618 105.648 23.9167 105.648 24.262C105.648 24.3273 105.63 24.4067 105.592 24.5C105.564 24.5933 105.536 24.668 105.508 24.724L105.97 24.08H101.616V25.13H107.272C107.272 25.0927 107.272 25.032 107.272 24.948C107.282 24.864 107.286 24.7847 107.286 24.71C107.286 24.0193 107.16 23.4313 106.908 22.946C106.656 22.4513 106.288 22.0733 105.802 21.812C105.326 21.5507 104.748 21.42 104.066 21.42C103.385 21.42 102.792 21.56 102.288 21.84C101.784 22.1107 101.392 22.498 101.112 23.002C100.842 23.506 100.706 24.0987 100.706 24.78C100.706 25.452 100.842 26.04 101.112 26.544C101.383 27.048 101.766 27.44 102.26 27.72C102.764 28 103.343 28.14 103.996 28.14Z" fill="white"/>
<path opacity="0.7" d="M235.599 23.17C236.233 23.17 236.789 23.058 237.265 22.834C237.741 22.61 238.114 22.3067 238.385 21.924C238.655 21.5413 238.791 21.1213 238.791 20.664C238.791 20.1973 238.679 19.768 238.455 19.376C238.24 18.984 237.927 18.6667 237.517 18.424C237.115 18.1813 236.635 18.06 236.075 18.06C235.543 18.06 235.067 18.172 234.647 18.396C234.236 18.6107 233.909 18.9093 233.667 19.292C233.433 19.6747 233.317 20.1227 233.317 20.636H234.451C234.451 20.2067 234.609 19.852 234.927 19.572C235.244 19.2827 235.631 19.138 236.089 19.138C236.415 19.138 236.686 19.2033 236.901 19.334C237.125 19.4647 237.293 19.6513 237.405 19.894C237.517 20.1273 237.573 20.398 237.573 20.706C237.573 20.9393 237.526 21.1587 237.433 21.364C237.349 21.5693 237.223 21.7513 237.055 21.91C236.887 22.0593 236.681 22.1807 236.439 22.274C236.196 22.358 235.916 22.4 235.599 22.4V23.17ZM236.019 28.14C236.607 28.14 237.129 28.028 237.587 27.804C238.044 27.58 238.403 27.2627 238.665 26.852C238.935 26.4413 239.071 25.9607 239.071 25.41C239.071 24.9247 238.977 24.5093 238.791 24.164C238.613 23.8187 238.361 23.5387 238.035 23.324C237.717 23.1 237.349 22.9367 236.929 22.834C236.518 22.7313 236.075 22.68 235.599 22.68V23.45C235.916 23.45 236.21 23.4873 236.481 23.562C236.751 23.6367 236.989 23.7533 237.195 23.912C237.4 24.0613 237.559 24.2527 237.671 24.486C237.792 24.71 237.853 24.9713 237.853 25.27C237.853 25.6247 237.778 25.9327 237.629 26.194C237.479 26.4553 237.265 26.6607 236.985 26.81C236.714 26.95 236.392 27.02 236.019 27.02C235.645 27.02 235.314 26.95 235.025 26.81C234.735 26.67 234.507 26.4787 234.339 26.236C234.18 25.9933 234.101 25.718 234.101 25.41H232.897C232.897 25.7927 232.971 26.152 233.121 26.488C233.27 26.8147 233.48 27.104 233.751 27.356C234.021 27.5987 234.348 27.79 234.731 27.93C235.113 28.07 235.543 28.14 236.019 28.14ZM245.73 24.78C245.73 24.332 245.824 23.9353 246.01 23.59C246.206 23.2353 246.468 22.96 246.794 22.764C247.13 22.568 247.508 22.47 247.928 22.47C248.348 22.47 248.722 22.568 249.048 22.764C249.384 22.96 249.646 23.2353 249.832 23.59C250.028 23.9353 250.126 24.332 250.126 24.78C250.126 25.228 250.028 25.6247 249.832 25.97C249.646 26.306 249.384 26.572 249.048 26.768C248.722 26.964 248.348 27.062 247.928 27.062C247.508 27.062 247.13 26.964 246.794 26.768C246.468 26.572 246.206 26.306 246.01 25.97C245.824 25.6247 245.73 25.228 245.73 24.78ZM248.516 18.2L245.212 22.75C245.026 23.0113 244.876 23.3147 244.764 23.66C244.652 24.0053 244.596 24.3787 244.596 24.78C244.596 25.452 244.741 26.04 245.03 26.544C245.329 27.048 245.73 27.44 246.234 27.72C246.738 28 247.303 28.14 247.928 28.14C248.563 28.14 249.128 28 249.622 27.72C250.126 27.44 250.523 27.048 250.812 26.544C251.111 26.04 251.26 25.452 251.26 24.78C251.26 24.332 251.186 23.9167 251.036 23.534C250.887 23.142 250.677 22.8013 250.406 22.512C250.145 22.2227 249.837 21.9987 249.482 21.84C249.137 21.6813 248.764 21.602 248.362 21.602C248.045 21.602 247.76 21.6393 247.508 21.714C247.266 21.7887 247.051 21.9427 246.864 22.176L246.948 22.246L250.014 18.2H248.516ZM253.713 23.1C253.713 22.5307 253.769 22.008 253.881 21.532C253.993 21.0467 254.156 20.6313 254.371 20.286C254.586 19.9313 254.842 19.6607 255.141 19.474C255.449 19.278 255.79 19.18 256.163 19.18C256.546 19.18 256.886 19.278 257.185 19.474C257.484 19.6607 257.74 19.9313 257.955 20.286C258.17 20.6313 258.333 21.0467 258.445 21.532C258.557 22.008 258.613 22.5307 258.613 23.1C258.613 23.6693 258.557 24.1967 258.445 24.682C258.333 25.158 258.17 25.5733 257.955 25.928C257.74 26.2733 257.484 26.544 257.185 26.74C256.886 26.9267 256.546 27.02 256.163 27.02C255.79 27.02 255.449 26.9267 255.141 26.74C254.842 26.544 254.586 26.2733 254.371 25.928C254.156 25.5733 253.993 25.158 253.881 24.682C253.769 24.1967 253.713 23.6693 253.713 23.1ZM252.523 23.1C252.523 24.08 252.677 24.948 252.985 25.704C253.293 26.46 253.718 27.0573 254.259 27.496C254.81 27.9253 255.444 28.14 256.163 28.14C256.882 28.14 257.512 27.9253 258.053 27.496C258.604 27.0573 259.033 26.46 259.341 25.704C259.649 24.948 259.803 24.08 259.803 23.1C259.803 22.12 259.649 21.252 259.341 20.496C259.033 19.74 258.604 19.1473 258.053 18.718C257.512 18.2793 256.882 18.06 256.163 18.06C255.444 18.06 254.81 18.2793 254.259 18.718C253.718 19.1473 253.293 19.74 252.985 20.496C252.677 21.252 252.523 22.12 252.523 23.1ZM263.899 23.17C264.534 23.17 265.089 23.058 265.565 22.834C266.041 22.61 266.415 22.3067 266.685 21.924C266.956 21.5413 267.091 21.1213 267.091 20.664C267.091 20.1973 266.979 19.768 266.755 19.376C266.541 18.984 266.228 18.6667 265.817 18.424C265.416 18.1813 264.935 18.06 264.375 18.06C263.843 18.06 263.367 18.172 262.947 18.396C262.537 18.6107 262.21 18.9093 261.967 19.292C261.734 19.6747 261.617 20.1227 261.617 20.636H262.751C262.751 20.2067 262.91 19.852 263.227 19.572C263.545 19.2827 263.932 19.138 264.389 19.138C264.716 19.138 264.987 19.2033 265.201 19.334C265.425 19.4647 265.593 19.6513 265.705 19.894C265.817 20.1273 265.873 20.398 265.873 20.706C265.873 20.9393 265.827 21.1587 265.733 21.364C265.649 21.5693 265.523 21.7513 265.355 21.91C265.187 22.0593 264.982 22.1807 264.739 22.274C264.497 22.358 264.217 22.4 263.899 22.4V23.17ZM264.319 28.14C264.907 28.14 265.43 28.028 265.887 27.804C266.345 27.58 266.704 27.2627 266.965 26.852C267.236 26.4413 267.371 25.9607 267.371 25.41C267.371 24.9247 267.278 24.5093 267.091 24.164C266.914 23.8187 266.662 23.5387 266.335 23.324C266.018 23.1 265.649 22.9367 265.229 22.834C264.819 22.7313 264.375 22.68 263.899 22.68V23.45C264.217 23.45 264.511 23.4873 264.781 23.562C265.052 23.6367 265.29 23.7533 265.495 23.912C265.701 24.0613 265.859 24.2527 265.971 24.486C266.093 24.71 266.153 24.9713 266.153 25.27C266.153 25.6247 266.079 25.9327 265.929 26.194C265.78 26.4553 265.565 26.6607 265.285 26.81C265.015 26.95 264.693 27.02 264.319 27.02C263.946 27.02 263.615 26.95 263.325 26.81C263.036 26.67 262.807 26.4787 262.639 26.236C262.481 25.9933 262.401 25.718 262.401 25.41H261.197C261.197 25.7927 261.272 26.152 261.421 26.488C261.571 26.8147 261.781 27.104 262.051 27.356C262.322 27.5987 262.649 27.79 263.031 27.93C263.414 28.07 263.843 28.14 264.319 28.14Z" fill="white"/>
<defs>
<clipPath id="clip0_291_10660">
<rect width="20" height="20" fill="white" transform="translate(16 13)"/>
</clipPath>
</defs>
</svg>
