<svg width="40" height="40" viewBox="0 0 40 40" fill="none" xmlns="http://www.w3.org/2000/svg">
<circle cx="20" cy="20" r="19.35" stroke="#EAEBED" stroke-width="1.3"/>
<path d="M27.9932 16.5148C27.7325 15.9053 27.3566 15.3529 26.8866 14.8886C26.4163 14.423 25.8617 14.0529 25.2531 13.7986C24.622 13.5338 23.9452 13.3983 23.2618 13.3999C22.3031 13.3999 21.3677 13.6651 20.5548 14.1659C20.3603 14.2857 20.1756 14.4173 20.0006 14.5606C19.8256 14.4173 19.6408 14.2857 19.4463 14.1659C18.6335 13.6651 17.6981 13.3999 16.7394 13.3999C16.049 13.3999 15.38 13.5335 14.748 13.7986C14.1374 14.0539 13.5871 14.4212 13.1145 14.8886C12.6439 15.3524 12.2679 15.9049 12.008 16.5148C11.7377 17.1492 11.5996 17.8229 11.5996 18.5162C11.5996 19.1702 11.7318 19.8517 11.9944 20.545C12.2141 21.1244 12.5292 21.7254 12.9317 22.3322C13.5696 23.2926 14.4466 24.2943 15.5356 25.3097C17.3403 26.9929 19.1274 28.1555 19.2033 28.2027L19.6641 28.5012C19.8683 28.6328 20.1309 28.6328 20.3351 28.5012L20.7959 28.2027C20.8718 28.1536 22.657 26.9929 24.4636 25.3097C25.5526 24.2943 26.4296 23.2926 27.0675 22.3322C27.47 21.7254 27.787 21.1244 28.0048 20.545C28.2674 19.8517 28.3996 19.1702 28.3996 18.5162C28.4015 17.8229 28.2635 17.1492 27.9932 16.5148ZM20.0006 26.9477C20.0006 26.9477 13.0776 22.4678 13.0776 18.5162C13.0776 16.5148 14.7169 14.8926 16.7394 14.8926C18.1609 14.8926 19.3938 15.6939 20.0006 16.8644C20.6073 15.6939 21.8402 14.8926 23.2618 14.8926C25.2842 14.8926 26.9236 16.5148 26.9236 18.5162C26.9236 22.4678 20.0006 26.9477 20.0006 26.9477Z" fill="#6F73EE"/>
</svg>
