<svg width="152" height="45" viewBox="0 0 152 45" fill="none" xmlns="http://www.w3.org/2000/svg">
<path d="M145.747 44.8882H5.82162C2.74327 44.8882 0.224609 42.3695 0.224609 39.2912V5.70908C0.224609 2.63073 2.74327 0.112068 5.82162 0.112068H145.747C148.825 0.112068 151.344 2.63073 151.344 5.70908V39.2912C151.344 42.3695 148.825 44.8882 145.747 44.8882Z" fill="white"/>
<path d="M119.93 33.6937H122.019V19.6998H119.93V33.6937ZM138.744 24.7407L136.35 30.8077H136.278L133.793 24.7407H131.543L135.269 33.2205L133.145 37.9373H135.324L141.067 24.7407H138.744ZM126.898 32.1042C126.213 32.1042 125.26 31.7623 125.26 30.9158C125.26 29.8357 126.448 29.4216 127.474 29.4216C128.393 29.4216 128.824 29.6196 129.382 29.89C129.22 31.186 128.104 32.1042 126.898 32.1042ZM127.15 24.4345C125.638 24.4345 124.072 25.1009 123.424 26.5772L125.278 27.3511C125.674 26.5772 126.411 26.3249 127.186 26.3249C128.266 26.3249 129.364 26.9733 129.382 28.1255V28.2694C129.004 28.0533 128.195 27.7294 127.204 27.7294C125.206 27.7294 123.171 28.8273 123.171 30.8798C123.171 32.7523 124.81 33.9586 126.645 33.9586C128.05 33.9586 128.824 33.3285 129.311 32.5905H129.382V33.6705H131.398V28.3052C131.398 25.8211 129.545 24.4345 127.15 24.4345ZM114.241 26.4442H111.27V21.6474H114.241C115.803 21.6474 116.689 22.9404 116.689 24.0458C116.689 25.1302 115.803 26.4442 114.241 26.4442ZM114.188 19.6998H109.183V33.6937H111.27V28.3919H114.188C116.503 28.3919 118.778 26.7158 118.778 24.0458C118.778 21.3759 116.503 19.6998 114.188 19.6998ZM86.8954 32.1068C85.4524 32.1068 84.2442 30.8986 84.2442 29.2392C84.2442 27.5624 85.4524 26.3358 86.8954 26.3358C88.3201 26.3358 89.4382 27.5624 89.4382 29.2392C89.4382 30.8986 88.3201 32.1068 86.8954 32.1068ZM89.2939 25.5243H89.2217C88.753 24.9654 87.8508 24.4604 86.7149 24.4604C84.3344 24.4604 82.1524 26.5522 82.1524 29.2392C82.1524 31.9083 84.3344 33.9823 86.7149 33.9823C87.8508 33.9823 88.753 33.4772 89.2217 32.9005H89.2939V33.5857C89.2939 35.4074 88.3201 36.3811 86.7511 36.3811C85.4708 36.3811 84.6772 35.4611 84.3523 34.6858L82.5311 35.4432C83.0541 36.7055 84.4428 38.2566 86.7511 38.2566C89.2038 38.2566 91.2777 36.8136 91.2777 33.2971V24.749H89.2939V25.5243ZM92.7202 33.6937H94.8122V19.6994H92.7202V33.6937ZM97.8961 29.077C97.842 27.2374 99.3208 26.2999 100.385 26.2999C101.215 26.2999 101.918 26.7144 102.152 27.3101L97.8961 29.077ZM104.388 27.4902C103.992 26.4258 102.783 24.4604 100.312 24.4604C97.8599 24.4604 95.8222 26.39 95.8222 29.2213C95.8222 31.8904 97.842 33.9823 100.547 33.9823C102.729 33.9823 103.992 32.6477 104.515 31.8724L102.892 30.7902C102.351 31.5838 101.611 32.1068 100.547 32.1068C99.483 32.1068 98.7257 31.6198 98.2386 30.6642L104.604 28.0311L104.388 27.4902ZM53.6702 25.9212V27.941H58.5032C58.3589 29.077 57.9802 29.9065 57.4031 30.4837C56.7 31.1872 55.5998 31.9625 53.6702 31.9625C50.6945 31.9625 48.3683 29.5641 48.3683 26.5885C48.3683 23.6129 50.6945 21.2141 53.6702 21.2141C55.2753 21.2141 56.4472 21.8455 57.313 22.657L58.7376 21.2325C57.5295 20.078 55.9242 19.1944 53.6702 19.1944C49.5943 19.1944 46.168 22.5127 46.168 26.5885C46.168 30.6642 49.5943 33.9823 53.6702 33.9823C55.8705 33.9823 57.5295 33.2613 58.8277 31.9083C60.1623 30.5738 60.5773 28.6983 60.5773 27.1837C60.5773 26.7144 60.5413 26.282 60.4688 25.9212H53.6702ZM66.072 32.1068C64.6289 32.1068 63.3845 30.9166 63.3845 29.2213C63.3845 27.5081 64.6289 26.3358 66.072 26.3358C67.5144 26.3358 68.7589 27.5081 68.7589 29.2213C68.7589 30.9166 67.5144 32.1068 66.072 32.1068ZM66.072 24.4604C63.4387 24.4604 61.2926 26.4621 61.2926 29.2213C61.2926 31.9625 63.4387 33.9823 66.072 33.9823C68.7047 33.9823 70.8508 31.9625 70.8508 29.2213C70.8508 26.4621 68.7047 24.4604 66.072 24.4604ZM76.4972 32.1068C75.0547 32.1068 73.8102 30.9166 73.8102 29.2213C73.8102 27.5081 75.0547 26.3358 76.4972 26.3358C77.9398 26.3358 79.1842 27.5081 79.1842 29.2213C79.1842 30.9166 77.9398 32.1068 76.4972 32.1068ZM76.4972 24.4604C73.864 24.4604 71.7183 26.4621 71.7183 29.2213C71.7183 31.9625 73.864 33.9823 76.4972 33.9823C79.13 33.9823 81.2761 31.9625 81.2761 29.2213C81.2761 26.4621 79.13 24.4604 76.4972 24.4604Z" fill="#282739"/>
<path d="M11.9899 36.3684L11.9067 36.2888C11.581 35.9442 11.3887 35.409 11.3887 34.7159V34.879V10.1223C11.3887 10.1201 11.3887 10.1184 11.3887 10.1166C11.3887 10.1187 11.3887 10.1205 11.3887 10.1228V10.2863C11.3887 9.53587 11.6129 8.97058 11.9886 8.63162L25.8577 22.5005L11.9899 36.3684ZM11.3887 10.1153C11.3887 10.0536 11.3904 9.99371 11.3935 9.93472C11.3904 9.99326 11.3887 10.0536 11.3887 10.1153ZM11.3935 9.93203C11.3935 9.93125 11.3935 9.93035 11.3938 9.92946C11.3935 9.93035 11.3935 9.93125 11.3935 9.93203ZM11.3938 9.9242C11.3938 9.92375 11.3938 9.9233 11.3938 9.92285C11.3938 9.9233 11.3938 9.92375 11.3938 9.9242Z" fill="url(#paint0_linear_3071_16932)"/>
<path d="M30.4798 27.2888L30.5852 27.2289L36.0624 24.1169C36.5846 23.82 36.9326 23.4601 37.1062 23.0793C36.933 23.4601 36.5849 23.8205 36.0624 24.1173L30.5852 27.2294L30.4798 27.2888ZM30.4811 27.1248L25.8574 22.5003L30.4807 17.8767L36.0624 21.0477C36.7712 21.4505 37.1691 21.9695 37.2356 22.4999C37.2356 22.5004 37.2356 22.5012 37.2356 22.502C37.1691 23.0312 36.7712 23.5507 36.0624 23.9533L30.4811 27.1248Z" fill="url(#paint1_linear_3071_16932)"/>
<path d="M12.9788 36.8965C12.5914 36.8965 12.2534 36.7706 11.9897 36.5327L11.9902 36.5322C12.2538 36.7701 12.5923 36.8965 12.9797 36.8965C13.0133 36.8965 13.0475 36.8956 13.082 36.8939C13.047 36.8956 13.0124 36.8965 12.9788 36.8965ZM12.9793 36.7325C12.5919 36.7329 12.2538 36.6066 11.9902 36.3687V36.3683L25.858 22.5004L30.4817 27.1249L14.2334 36.3569C13.7838 36.6118 13.3579 36.7325 12.9793 36.7325ZM11.9863 36.5297C11.9617 36.5074 11.9377 36.4838 11.9141 36.4592L11.9863 36.5297Z" fill="url(#paint2_linear_3071_16932)"/>
<path d="M25.8575 22.5002L11.9883 8.6314C12.2519 8.39398 12.5895 8.26804 12.9765 8.26804C13.3561 8.26804 13.7823 8.38916 14.2328 8.6445L30.4807 17.8766L25.8575 22.5002ZM30.5853 17.7721L14.2328 8.48106C13.7823 8.22562 13.3561 8.1045 12.9765 8.1045C12.9747 8.1045 12.9735 8.1045 12.9717 8.1045C12.9739 8.1045 12.9756 8.1045 12.9783 8.1045C13.357 8.1045 13.7828 8.22517 14.2328 8.48062L30.5853 17.7721Z" fill="url(#paint3_linear_3071_16932)"/>
<path d="M13.0813 36.894C13.4332 36.8739 13.8229 36.7528 14.2326 36.5206L30.4796 27.289L14.2326 36.5206C13.8232 36.7532 13.4332 36.8739 13.0813 36.894ZM11.989 36.5328L11.9855 36.5298C11.9867 36.5307 11.9881 36.5319 11.989 36.5328ZM11.9133 36.4594L11.9062 36.4524V36.452C11.9089 36.4546 11.9111 36.4571 11.9133 36.4594Z" fill="white"/>
<path d="M30.4805 27.2888L30.5859 27.2289L30.4805 27.2888Z" fill="url(#paint4_linear_3071_16932)"/>
<path d="M12.979 36.8965C12.5915 36.8965 12.253 36.7701 11.9894 36.5322L11.989 36.5327C11.9881 36.5318 11.9867 36.5306 11.9855 36.5297L11.9133 36.4592C11.9111 36.457 11.9089 36.4544 11.9062 36.4519L11.9894 36.3687C12.253 36.6066 12.5911 36.7329 12.9785 36.7325C13.3571 36.7325 13.783 36.6118 14.2326 36.3569L30.481 27.1249L30.5851 27.229L30.4796 27.2889L14.2326 36.5205C13.8229 36.7526 13.4332 36.8738 13.0813 36.8939C13.0467 36.8956 13.0126 36.8965 12.979 36.8965Z" fill="url(#paint5_linear_3071_16932)"/>
<path d="M11.9067 36.4524C11.581 36.1077 11.3887 35.5725 11.3887 34.8795V34.8791C11.3887 35.5725 11.581 36.1073 11.9067 36.4519V36.4524Z" fill="white"/>
<path d="M11.9067 36.4521C11.581 36.1075 11.3887 35.5727 11.3887 34.8793V34.7162C11.3887 35.4092 11.581 35.9444 11.9067 36.2891L11.9899 36.3686L11.9067 36.4521Z" fill="url(#paint6_linear_3071_16932)"/>
<path d="M11.9062 36.4521L11.9894 36.3686V36.369L11.9062 36.4521Z" fill="url(#paint7_linear_3071_16932)"/>
<path d="M37.1055 23.0793C37.1916 22.8904 37.2349 22.6963 37.2349 22.5021C37.2349 22.5017 37.2349 22.5013 37.2349 22.5013C37.2349 22.6958 37.1916 22.8899 37.1055 23.0793Z" fill="white"/>
<path d="M30.5846 27.229L30.4805 27.1249L36.0617 23.9534C36.7705 23.5508 37.1685 23.0312 37.235 22.5021C37.235 22.6963 37.1916 22.8904 37.1056 23.0794C36.9319 23.4602 36.5839 23.8201 36.0617 24.117L30.5846 27.229Z" fill="url(#paint8_linear_3071_16932)"/>
<path d="M37.2348 22.5002V22.4998C37.2344 21.9142 36.843 21.3288 36.0616 20.8845L30.5844 17.7724H30.584L30.5844 17.7721L36.0616 20.8841C36.8439 21.3283 37.2357 21.9147 37.2348 22.5002Z" fill="#282739"/>
<path d="M37.2354 22.5C37.1689 21.9696 36.771 21.4506 36.0621 21.0478L30.4805 17.8768L30.5846 17.7727H30.585L36.0621 20.8847C36.8436 21.329 37.2349 21.9144 37.2354 22.5Z" fill="url(#paint9_linear_3071_16932)"/>
<path d="M11.3887 10.1167C11.3887 10.1163 11.3887 10.1158 11.3887 10.1154C11.3887 10.1158 11.3887 10.1163 11.3887 10.1167ZM11.3935 9.9348C11.3935 9.9339 11.3935 9.93301 11.3935 9.93211C11.3935 9.93301 11.3935 9.9339 11.3935 9.9348ZM11.3938 9.92954C11.3938 9.92774 11.3938 9.92607 11.3938 9.92427C11.3938 9.92607 11.3938 9.92774 11.3938 9.92954ZM11.3938 9.92293C11.4586 8.77297 12.0839 8.10872 12.9685 8.1048C12.585 8.10704 12.2509 8.23297 11.9895 8.4686V8.46816L11.9863 8.47129C11.9588 8.49614 11.9326 8.52245 11.9067 8.54954C11.6129 8.86039 11.4275 9.32607 11.3938 9.92293Z" fill="#282739"/>
<path d="M11.3887 10.2861V10.1226C11.3887 10.1203 11.3887 10.1186 11.3887 10.1164C11.3887 10.116 11.3887 10.1155 11.3887 10.1151C11.3887 10.0534 11.3904 9.99307 11.3935 9.93453C11.3935 9.93363 11.3935 9.93274 11.3935 9.93184C11.3935 9.93106 11.3935 9.93016 11.3938 9.92927C11.3938 9.92748 11.3938 9.9258 11.3938 9.92401C11.3938 9.92356 11.3938 9.92311 11.3938 9.92266C11.4275 9.3258 11.6129 8.86012 11.9067 8.54927L11.9886 8.63143C11.6129 8.97039 11.3887 9.53568 11.3887 10.2861ZM11.9863 8.47102L11.9895 8.46789C11.9886 8.46923 11.9872 8.47012 11.9863 8.47102Z" fill="url(#paint10_linear_3071_16932)"/>
<path d="M30.4805 17.877L14.2326 8.6449C13.7821 8.38957 13.3559 8.26845 12.9763 8.26845C12.5893 8.26845 12.2517 8.39438 11.9881 8.6318L11.9062 8.54964C11.9321 8.52255 11.9583 8.49624 11.9858 8.47139C11.9867 8.4705 11.9881 8.4696 11.989 8.46871C12.2505 8.23307 12.5845 8.10714 12.968 8.1049C12.9689 8.1049 12.9701 8.1049 12.9715 8.1049C12.9733 8.1049 12.9745 8.1049 12.9763 8.1049C13.3559 8.1049 13.7821 8.22602 14.2326 8.48147L30.5851 17.7725L30.5846 17.7728L30.4805 17.877Z" fill="url(#paint11_linear_3071_16932)"/>
<path d="M48.914 11.2685C48.9271 12.3311 48.7142 13.1881 48.2769 13.8388H51.6722V8.7726H48.914V11.2685ZM47.3661 16.0894H46.541V13.8388H47.1978C47.7793 13.3376 48.0635 12.4815 48.0518 11.2685V7.94749H52.5359V13.8388H53.2859V16.0894H52.4603V14.6639H47.3661V16.0894Z" fill="#282739"/>
<path d="M48.9147 11.2682L48.8027 11.2695L48.8036 11.36C48.8032 12.3653 48.5933 13.1681 48.1844 13.7759L48.0673 13.9504H51.7848V8.66029H48.8027V11.2691V11.2695L48.9147 11.2682H49.0266V8.88417H51.5609V13.7265H48.2775V13.8384L48.3703 13.9006C48.8105 13.2455 49.0275 12.3954 49.0275 11.36L49.0266 11.2668L48.9147 11.2682H49.0266H48.9147ZM47.3667 16.089V15.977H46.6536V13.9504H47.1984H47.2399L47.2714 13.9233C47.8765 13.4012 48.1648 12.5314 48.1648 11.3416L48.1643 11.2673V11.2682V8.05906H52.4245V13.9504H53.1745V15.977H52.5729V14.6635V14.5516H47.2548V16.089H47.3667V15.977V16.089H47.4787V14.7755H52.349V16.089V16.2009H53.2865H53.3984V13.7265H52.6484V7.83518H47.9404V11.2686V11.2691L47.9409 11.3416C47.9404 12.5 47.6597 13.2945 47.1253 13.7531L47.1984 13.8384V13.7265H46.5416H46.4297V16.2009H47.3667H47.4787V16.089H47.3667Z" fill="#282739"/>
<path d="M55.7301 13.2335C56.2277 13.7367 56.8355 13.9882 57.5549 13.9882C58.2741 13.9882 58.8828 13.7367 59.379 13.2335C59.8767 12.7302 60.1259 12.0869 60.1259 11.3055C60.1259 10.5242 59.8767 9.88085 59.379 9.37756C58.8828 8.87428 58.2741 8.62286 57.5549 8.62286C56.8355 8.62286 56.2277 8.87428 55.7301 9.37756C55.2338 9.88085 54.9846 10.5242 54.9846 11.3055C54.9846 12.0869 55.2338 12.7302 55.7301 13.2335ZM60.0175 13.7957C59.3572 14.4748 58.5365 14.8137 57.5549 14.8137C56.5731 14.8137 55.7519 14.4748 55.093 13.7957C54.4327 13.1175 54.1035 12.2872 54.1035 11.3055C54.1035 10.3238 54.4327 9.49342 55.093 8.81529C55.7519 8.13614 56.5731 7.79685 57.5549 7.79685C58.5308 7.79685 59.3498 8.13794 60.0131 8.81965C60.6755 9.50137 61.007 10.33 61.007 11.3055C61.007 12.2872 60.6769 13.1175 60.0175 13.7957Z" fill="#282739"/>
<path d="M55.7307 13.2336L55.6511 13.3123C56.1666 13.8357 56.8098 14.1016 57.5555 14.1002C58.3006 14.1016 58.9451 13.8357 59.4592 13.3123C59.9783 12.7884 60.2394 12.1106 60.2385 11.3056C60.2394 10.5007 59.9783 9.82287 59.4592 9.29899C58.9451 8.77556 58.3006 8.5097 57.5555 8.51104C56.8098 8.5097 56.1666 8.77556 55.6511 9.29899C55.1334 9.82287 54.8724 10.5007 54.8733 11.3056C54.8724 12.1106 55.1334 12.7884 55.6511 13.3123L55.7307 13.2336L55.8108 13.1549C55.3358 12.6716 55.0984 12.0638 55.0972 11.3056C55.0984 10.5475 55.3358 9.93962 55.8108 9.45638H55.8103C56.2895 8.97324 56.8619 8.73627 57.5555 8.73492C58.2485 8.73627 58.8222 8.97324 59.3001 9.45638L59.3019 9.45817L59.3001 9.45638C59.7763 9.93962 60.0133 10.5475 60.0146 11.3056C60.0133 12.0638 59.7763 12.6716 59.3001 13.1549C58.8222 13.638 58.2485 13.875 57.5555 13.8763C56.8619 13.875 56.2895 13.638 55.8103 13.1549L55.7307 13.2336ZM60.0182 13.7959L59.9381 13.7181C59.2966 14.3757 58.5113 14.7006 57.5555 14.7019C56.5992 14.7006 55.8142 14.3757 55.1736 13.7181C54.5334 13.0582 54.2173 12.2624 54.2161 11.3056C54.2173 10.3489 54.5334 9.55309 55.1736 8.89321C55.8142 8.23556 56.5992 7.91026 57.5555 7.90892C58.5056 7.91026 59.2888 8.2369 59.9338 8.89802C60.5765 9.56093 60.8944 10.3555 60.8957 11.3056C60.8944 12.2624 60.5774 13.0582 59.9381 13.7181L60.0182 13.7959L60.0985 13.8737C60.7772 13.1767 61.1204 12.3122 61.1195 11.3056C61.1204 10.3048 60.7763 9.44205 60.0942 8.74197C59.412 8.03921 58.5577 7.6838 57.5555 7.68503C56.548 7.6838 55.6909 8.03753 55.0132 8.73761V8.73716C54.3332 9.43455 53.9913 10.2991 53.9922 11.3056C53.9913 12.3122 54.3332 13.1767 55.0132 13.8741V13.8737C55.6909 14.5737 56.548 14.9267 57.5555 14.9258C58.5625 14.9267 59.4195 14.5737 60.0985 13.8737L60.0182 13.7959Z" fill="#282739"/>
<path d="M65.3507 14.8137C64.3625 14.8137 63.5339 14.4792 62.8649 13.8097C62.1946 13.1408 61.8613 12.3059 61.8613 11.3055C61.8613 10.305 62.1946 9.47025 62.8649 8.80129C63.5339 8.13178 64.3625 7.79685 65.3507 7.79685C66.363 7.79685 67.186 8.1629 67.8178 8.89443L67.2165 9.47641C66.761 8.90708 66.1378 8.62286 65.3507 8.62286C64.6183 8.62286 64.0004 8.86991 63.4976 9.36402C62.9938 9.85812 62.7424 10.5054 62.7424 11.3055C62.7424 12.1057 62.9938 12.7533 63.4976 13.247C64.0004 13.7411 64.6183 13.9882 65.3507 13.9882C66.1575 13.9882 66.8449 13.6632 67.4146 13.013L68.0146 13.6129C67.7076 13.982 67.3237 14.2745 66.8601 14.4897C66.3979 14.7057 65.8939 14.8137 65.3507 14.8137Z" fill="#282739"/>
<path d="M65.3514 14.8138V14.7019C64.3881 14.7006 63.5944 14.3792 62.9446 13.7307C62.2953 13.0813 61.9748 12.2812 61.9739 11.3056C61.9748 10.3301 62.2953 9.52992 62.9446 8.88056C63.5944 8.23164 64.3881 7.91026 65.3514 7.90892C66.337 7.91071 67.1206 8.25963 67.7335 8.96754L67.8184 8.89455L67.7406 8.81407L67.1394 9.39649L67.2172 9.47653L67.3046 9.40657C66.8297 8.81104 66.1647 8.50936 65.3514 8.51104C64.5935 8.51015 63.9416 8.77041 63.4199 9.2841C62.893 9.7997 62.6297 10.4826 62.6311 11.3056C62.6297 12.1286 62.893 12.8125 63.4199 13.3272C63.9416 13.8409 64.5935 14.1011 65.3514 14.1002C66.1887 14.1016 66.9141 13.7578 67.4991 13.087L67.4152 13.0132L67.336 13.0923L67.936 13.6922L68.0152 13.6131L67.929 13.5419C67.6326 13.8977 67.2635 14.1794 66.8135 14.3884C66.3662 14.5973 65.88 14.7015 65.3514 14.7019V14.8138V14.9258C65.9093 14.9258 66.4306 14.8147 66.908 14.5913C67.3855 14.37 67.7835 14.067 68.1013 13.6848L68.1664 13.6066L67.4944 12.934L67.4096 12.8492L67.3309 12.9393C66.7772 13.5694 66.1275 13.875 65.3514 13.8763C64.6439 13.875 64.061 13.6415 63.5769 13.1671H63.5765C63.0955 12.6948 62.8559 12.0831 62.855 11.3056C62.8559 10.5282 63.0955 9.91735 63.5765 9.44418H63.5769C64.061 8.96977 64.6439 8.73627 65.3514 8.73492C66.1118 8.73672 66.6928 9.00347 67.1297 9.54649L67.2066 9.64276L67.8962 8.97504L67.9723 8.90149L67.9033 8.82156C67.253 8.06597 66.3903 7.68381 65.3514 7.68504C64.3377 7.68414 63.4741 8.03272 62.7864 8.72227C62.095 9.41048 61.7487 10.2807 61.75 11.3056C61.7487 12.3306 62.095 13.2008 62.7864 13.8894C63.4741 14.5785 64.3377 14.9267 65.3514 14.9258V14.8138Z" fill="#282739"/>
<path d="M71.505 14.6636H70.6415V8.77227H68.7656V7.94715H73.3809V8.77227H71.505V14.6636Z" fill="#282739"/>
<path d="M71.5056 14.6637V14.5518H70.7541V8.66045H68.8782V8.05922H73.2696V8.66045H71.3937V14.6637H71.5056V14.5518V14.6637H71.6176V8.88433H73.4935V7.94728V7.83534H68.6543V8.77239V8.88433H70.5302V14.7756H71.5056H71.6176V14.6637H71.5056Z" fill="#282739"/>
<path d="M75.2558 12.0364H77.4876L76.3901 9.00712H76.3529L75.2558 12.0364ZM73.3516 14.6636L75.8847 7.94715H76.8593L79.392 14.6636H78.4357L77.788 12.8432H74.9651L74.3083 14.6636H73.3516Z" fill="#282739"/>
<path d="M75.2555 12.0366V12.1485H77.647L76.4681 8.8953H76.3527H76.274L75.096 12.1485H75.2555V12.0366L75.361 12.0751L76.4581 9.0453L76.3527 9.00724V9.11918H76.3898V9.00724L76.2845 9.0453L77.3278 11.9246H75.2555V12.0366L75.361 12.0751L75.2555 12.0366ZM73.3513 14.6637L73.4562 14.7031L75.9618 8.05922H76.7812L79.2299 14.5518H78.5141L77.8669 12.7314H74.8861L74.2293 14.5518H73.3513V14.6637L73.4562 14.7031L73.3513 14.6637V14.7756H74.3081H74.3868L75.0435 12.9553H77.709L78.3563 14.7756H79.3917H79.5535L76.9364 7.83534H75.8844H75.807L73.1895 14.7756H73.3513V14.6637Z" fill="#282739"/>
<path d="M80.3672 14.6636V7.94715H85.2265V14.6636H84.363V8.77227H81.2299V14.6636H80.3672Z" fill="#282739"/>
<path d="M80.3678 14.6637H80.4797V8.05922H85.1152V14.5518H84.4756V8.66045H81.1186V14.5518H80.3678V14.6637H80.4797H80.3678V14.7756H81.2305H81.3425V8.88433H84.2517V14.7756H85.2271H85.3391V7.83534H80.2559V14.7756H80.3678V14.6637Z" fill="#282739"/>
<path d="M86.7656 14.6636V7.94715H87.6285V10.8266H90.9867V7.94715H91.8498V14.6636H90.9867V11.6333H87.6285V14.6636H86.7656Z" fill="#282739"/>
<path d="M86.7662 14.6637H86.8782V8.05922H87.5171L87.5167 10.9387H91.0992V8.05922H91.7384V14.5518H91.0988L91.0992 11.5215H87.5167V14.5518H86.7662V14.6637H86.8782H86.7662V14.7756H87.6291H87.741V11.7454H90.8749V14.7756H91.8504H91.9623V7.83534H90.9873H90.8749V10.7148H87.7406L87.741 7.83534H86.7662H86.6543V14.7756H86.7662V14.6637Z" fill="#282739"/>
<path d="M94.5934 13.2335C95.0911 13.7367 95.6984 13.9882 96.4177 13.9882C97.1375 13.9882 97.7461 13.7367 98.2424 13.2335C98.7396 12.7302 98.9893 12.0869 98.9893 11.3055C98.9893 10.5242 98.7396 9.88085 98.2424 9.37756C97.7461 8.87428 97.1375 8.62286 96.4177 8.62286C95.6984 8.62286 95.0911 8.87428 94.5934 9.37756C94.0972 9.88085 93.8479 10.5242 93.8479 11.3055C93.8479 12.0869 94.0972 12.7302 94.5934 13.2335ZM98.8808 13.7957C98.2206 14.4748 97.3999 14.8137 96.4177 14.8137C95.4365 14.8137 94.6153 14.4748 93.9564 13.7957C93.2961 13.1175 92.9668 12.2872 92.9668 11.3055C92.9668 10.3238 93.2961 9.49342 93.9564 8.81529C94.6153 8.13614 95.4365 7.79685 96.4177 7.79685C97.3941 7.79685 98.2127 8.13794 98.8765 8.81965C99.5389 9.50137 99.8704 10.33 99.8704 11.3055C99.8704 12.2872 99.5403 13.1175 98.8808 13.7957Z" fill="#282739"/>
<path d="M94.594 13.2336L94.5144 13.3123C95.03 13.8357 95.6732 14.1016 96.4183 14.1002C97.1638 14.1016 97.8079 13.8357 98.3226 13.3123C98.8417 12.7884 99.1027 12.1106 99.1019 11.3056C99.1027 10.5007 98.8417 9.82287 98.3226 9.29899C97.8079 8.77556 97.1638 8.5097 96.4183 8.51104C95.6732 8.5097 95.03 8.77556 94.5144 9.29899C93.9967 9.82287 93.7357 10.5007 93.7366 11.3056C93.7357 12.1106 93.9967 12.7884 94.5144 13.3123L94.594 13.2336L94.6736 13.1549C94.1988 12.6716 93.9613 12.0638 93.9604 11.3056C93.9613 10.5475 94.1988 9.93962 94.6736 9.45638C95.1529 8.97324 95.7253 8.73627 96.4183 8.73492C97.1119 8.73627 97.6856 8.97324 98.1635 9.45638L98.1665 9.45996L98.1635 9.45638C98.6392 9.93962 98.8766 10.5475 98.878 11.3056C98.8766 12.0638 98.6392 12.6716 98.1635 13.1549C97.6856 13.638 97.1119 13.875 96.4183 13.8763C95.7253 13.875 95.1529 13.638 94.6736 13.1549L94.594 13.2336ZM98.8814 13.7959L98.801 13.7181C98.1595 14.3757 97.3746 14.7006 96.4183 14.7019C95.4624 14.7006 94.6775 14.3757 94.037 13.7181L94.0339 13.7146L94.037 13.7181C93.3964 13.0582 93.0802 12.2624 93.0794 11.3056C93.0802 10.3489 93.3964 9.55309 94.037 8.89321C94.6775 8.23556 95.4624 7.91026 96.4183 7.90892C97.3686 7.91026 98.1517 8.2369 98.797 8.89802C99.4398 9.56093 99.7577 10.3555 99.7591 11.3056C99.7577 12.2624 99.4407 13.0582 98.801 13.7181L98.8814 13.7959L98.9619 13.8737C99.6405 13.1767 99.9838 12.3122 99.9829 11.3056C99.9838 10.3048 99.6393 9.44205 98.9576 8.74197C98.2754 8.03921 97.4205 7.6838 96.4183 7.68503C95.4113 7.6838 94.5543 8.03753 93.8765 8.73761V8.73716C93.1966 9.43455 92.8546 10.2991 92.8555 11.3056C92.8546 12.3122 93.1966 13.1767 93.8765 13.8741V13.8737C94.5543 14.5737 95.4113 14.9267 96.4183 14.9258C97.4258 14.9267 98.2828 14.5737 98.9619 13.8737L98.8814 13.7959Z" fill="#282739"/>
<path d="M103.398 14.6636V7.94715H104.26V10.8266H107.619V7.94715H108.483V14.6636H107.619V11.6333H104.26V14.6636H103.398Z" fill="#282739"/>
<path d="M103.399 14.6637H103.511V8.05922H104.149V10.9387H107.731V8.05922H108.371V14.5518H107.731V11.5215H104.149V14.5518H103.399V14.6637H103.511H103.399V14.7756H104.261H104.373V11.7454H107.507V14.7756H108.483H108.595V7.83534H107.619H107.507V10.7148H104.373V7.83534H103.399H103.287V14.7756H103.399V14.6637Z" fill="#282739"/>
<path d="M111.363 12.0364H113.595L112.498 9.00712H112.461L111.363 12.0364ZM109.459 14.6636L111.992 7.94715H112.967L115.5 14.6636H114.543L113.896 12.8432H111.072L110.416 14.6636H109.459Z" fill="#282739"/>
<path d="M111.363 12.0366V12.1485H113.755L112.577 8.8953H112.461H112.383L111.204 12.1485H111.363V12.0366L111.469 12.0751L112.567 9.0453L112.461 9.00724V9.11918H112.498V9.00724L112.393 9.0453L113.436 11.9246H111.363V12.0366L111.469 12.0751L111.363 12.0366ZM109.459 14.6637L109.564 14.7031L112.07 8.05922H112.89L115.338 14.5518H114.623L113.975 12.7314H110.994L110.337 14.5518H109.459V14.6637L109.564 14.7031L109.459 14.6637V14.7756H110.416H110.495L111.152 12.9553H113.817L114.464 14.7756H115.501H115.662L113.045 7.83534H111.992H111.915L109.297 14.7756H109.459V14.6637Z" fill="#282739"/>
<defs>
<linearGradient id="paint0_linear_3071_16932" x1="24.628" y1="9.86117" x2="5.84159" y2="28.6476" gradientUnits="userSpaceOnUse">
<stop stop-color="#00A0FF"/>
<stop offset="0.00657445" stop-color="#00A1FF"/>
<stop offset="0.2601" stop-color="#00BEFF"/>
<stop offset="0.5122" stop-color="#00D2FF"/>
<stop offset="0.7604" stop-color="#00DFFF"/>
<stop offset="1" stop-color="#00E3FF"/>
</linearGradient>
<linearGradient id="paint1_linear_3071_16932" x1="38.0992" y1="22.501" x2="11.013" y2="22.501" gradientUnits="userSpaceOnUse">
<stop stop-color="#FFE000"/>
<stop offset="0.4087" stop-color="#FFBD00"/>
<stop offset="0.7754" stop-color="#FFA500"/>
<stop offset="1" stop-color="#FF9C00"/>
</linearGradient>
<linearGradient id="paint2_linear_3071_16932" x1="28.0169" y1="25.0698" x2="2.54118" y2="50.5455" gradientUnits="userSpaceOnUse">
<stop stop-color="#FF3A44"/>
<stop offset="1" stop-color="#C31162"/>
</linearGradient>
<linearGradient id="paint3_linear_3071_16932" x1="8.39354" y1="0.30853" x2="19.7695" y2="11.6845" gradientUnits="userSpaceOnUse">
<stop stop-color="#32A071"/>
<stop offset="0.0685" stop-color="#2DA771"/>
<stop offset="0.4762" stop-color="#15CF74"/>
<stop offset="0.8009" stop-color="#06E775"/>
<stop offset="1" stop-color="#00F076"/>
</linearGradient>
<linearGradient id="paint4_linear_3071_16932" x1="38.1" y1="22.5014" x2="11.0134" y2="22.5014" gradientUnits="userSpaceOnUse">
<stop stop-color="#CCB300"/>
<stop offset="0.4087" stop-color="#CC9700"/>
<stop offset="0.7754" stop-color="#CC8400"/>
<stop offset="1" stop-color="#CC7D00"/>
</linearGradient>
<linearGradient id="paint5_linear_3071_16932" x1="28.0161" y1="25.0698" x2="2.54042" y2="50.5455" gradientUnits="userSpaceOnUse">
<stop stop-color="#CC2E36"/>
<stop offset="1" stop-color="#9C0E4E"/>
</linearGradient>
<linearGradient id="paint6_linear_3071_16932" x1="24.628" y1="9.8614" x2="5.84161" y2="28.6478" gradientUnits="userSpaceOnUse">
<stop stop-color="#008DE0"/>
<stop offset="0.00657445" stop-color="#008DE0"/>
<stop offset="0.2601" stop-color="#00A7E0"/>
<stop offset="0.5122" stop-color="#00B8E0"/>
<stop offset="0.7604" stop-color="#00C4E0"/>
<stop offset="1" stop-color="#00C7E0"/>
</linearGradient>
<linearGradient id="paint7_linear_3071_16932" x1="28.0166" y1="25.0704" x2="2.54159" y2="50.5468" gradientUnits="userSpaceOnUse">
<stop stop-color="#E0333C"/>
<stop offset="1" stop-color="#AB0F56"/>
</linearGradient>
<linearGradient id="paint8_linear_3071_16932" x1="38.0986" y1="22.5011" x2="11.0123" y2="22.5011" gradientUnits="userSpaceOnUse">
<stop stop-color="#E0C500"/>
<stop offset="0.4087" stop-color="#E0A600"/>
<stop offset="0.7754" stop-color="#E09100"/>
<stop offset="1" stop-color="#E08900"/>
</linearGradient>
<linearGradient id="paint9_linear_3071_16932" x1="38.099" y1="22.5011" x2="11.0128" y2="22.5011" gradientUnits="userSpaceOnUse">
<stop stop-color="#FFE840"/>
<stop offset="0.4087" stop-color="#FFCE40"/>
<stop offset="0.7754" stop-color="#FFBC40"/>
<stop offset="1" stop-color="#FFB540"/>
</linearGradient>
<linearGradient id="paint10_linear_3071_16932" x1="24.628" y1="9.86098" x2="5.84159" y2="28.6474" gradientUnits="userSpaceOnUse">
<stop stop-color="#40B8FF"/>
<stop offset="0.00657445" stop-color="#40B9FF"/>
<stop offset="0.2601" stop-color="#40CEFF"/>
<stop offset="0.5122" stop-color="#40DDFF"/>
<stop offset="0.7604" stop-color="#40E7FF"/>
<stop offset="1" stop-color="#40EAFF"/>
</linearGradient>
<linearGradient id="paint11_linear_3071_16932" x1="8.39334" y1="0.308929" x2="19.7693" y2="11.6849" gradientUnits="userSpaceOnUse">
<stop stop-color="#65B895"/>
<stop offset="0.0685" stop-color="#62BD95"/>
<stop offset="0.4762" stop-color="#50DB97"/>
<stop offset="0.8009" stop-color="#44ED98"/>
<stop offset="1" stop-color="#40F498"/>
</linearGradient>
</defs>
</svg>
