<svg width="35" height="24" viewBox="0 0 35 24" fill="none" xmlns="http://www.w3.org/2000/svg">
<rect x="1.02466" y="0.559815" width="33.5905" height="22.8805" rx="2.6775" fill="white" stroke="#EAEBED" stroke-width="0.486818"/>
<path d="M20.3463 12.1236C20.3463 15.8355 17.3718 18.8446 13.7025 18.8446C10.0332 18.8446 7.05859 15.8355 7.05859 12.1236C7.05859 8.41168 10.0332 5.40259 13.7025 5.40259C17.3718 5.40259 20.3463 8.41168 20.3463 12.1236Z" fill="#ED0006"/>
<path d="M28.9655 12.1238C28.9655 15.8357 25.9909 18.8448 22.3216 18.8448C18.6523 18.8448 15.6777 15.8357 15.6777 12.1238C15.6777 8.41193 18.6523 5.40283 22.3216 5.40283C25.9909 5.40283 28.9655 8.41193 28.9655 12.1238Z" fill="#0099DF"/>
<path fill-rule="evenodd" clip-rule="evenodd" d="M18.012 17.2391C19.4405 16.0064 20.3463 14.172 20.3463 12.1237C20.3463 10.0754 19.4405 8.24106 18.012 7.0083C16.5835 8.24106 15.6777 10.0754 15.6777 12.1237C15.6777 14.172 16.5835 16.0064 18.012 17.2391Z" fill="#6C6BBD"/>
</svg>
