<svg width="35" height="24" viewBox="0 0 35 24" fill="none" xmlns="http://www.w3.org/2000/svg">
<rect x="0.915284" y="0.559815" width="33.5905" height="22.8805" rx="2.6775" fill="white" stroke="#EAEBED" stroke-width="0.486818"/>
<path fill-rule="evenodd" clip-rule="evenodd" d="M10.4082 11.5788C10.4082 15.3487 13.4827 18.4232 17.2892 18.4232C17.7564 18.4232 18.2236 18.3823 18.7605 18.3353C19.3591 18.2829 20.0444 18.2229 20.9127 18.2036C22.2304 18.2036 23.6578 18.6794 25.2317 20.0702C25.3781 20.2167 25.5977 20.0336 25.4513 19.8506C23.8774 17.9108 22.45 17.5448 21.0225 17.2154C19.2657 16.8127 18.3507 15.8611 17.7284 14.7631C17.6186 14.5435 17.5454 14.5801 17.5454 14.8729C17.5088 15.3121 17.5454 15.7147 17.6186 16.1173H17.399C14.9101 16.1173 12.8605 14.0677 12.8605 11.5788C12.8605 9.0899 14.9101 7.04023 17.399 7.04023C19.8879 7.04023 21.9376 9.0899 21.9376 11.5788C21.9376 11.7252 21.9376 11.9082 21.901 12.0912C21.535 12.018 20.9127 12.018 20.4369 12.0546C20.2539 12.0546 20.2539 12.1278 20.4003 12.1644C21.8644 12.4572 22.8892 13.3722 23.1454 15.0559C23.1454 15.1291 23.182 15.1291 23.2186 15.0925C23.8042 14.0677 24.1702 12.8598 24.1702 11.5788C24.1702 7.77225 21.0957 4.69775 17.2892 4.69775C13.4827 4.69775 10.4082 7.80885 10.4082 11.5788ZM22.267 14.3971C22.5232 14.507 22.633 14.873 22.633 15.056C22.6696 15.3488 22.5964 15.4952 22.4866 15.4952C22.3768 15.4952 22.2304 15.3854 22.084 15.1292C21.9376 14.873 21.8644 14.6168 21.9376 14.4704C22.0474 14.3972 22.1572 14.3605 22.267 14.3971ZM20.7663 15.5319C20.9127 15.5319 21.0957 15.6051 21.2788 15.7515C21.5716 16.0077 21.6814 16.3005 21.535 16.5201C21.4618 16.6299 21.2787 16.7031 21.1323 16.7031C20.9493 16.7031 20.7663 16.6299 20.6565 16.5201C20.3637 16.2639 20.2905 15.8979 20.4735 15.6783C20.5101 15.6051 20.6199 15.5319 20.7663 15.5319Z" fill="#F28A1A"/>
</svg>
