<svg width="288" height="45" viewBox="0 0 288 45" fill="none" xmlns="http://www.w3.org/2000/svg">
<rect width="288" height="45" rx="5" fill="#039BE5"/>
<g clip-path="url(#clip0_291_10654)">
<path d="M23.8472 25.6508L23.5163 30.3041C23.9897 30.3041 24.1947 30.1008 24.4405 29.8566L26.6597 27.7358L31.258 31.1033C32.1013 31.5733 32.6955 31.3258 32.923 30.3274L35.9413 16.1841L35.9422 16.1833C36.2097 14.9366 35.4913 14.4491 34.6697 14.7549L16.928 21.5474C15.7172 22.0174 15.7355 22.6924 16.7222 22.9983L21.258 24.4091L31.7938 17.8166C32.2897 17.4883 32.7405 17.6699 32.3697 17.9983L23.8472 25.6508Z" fill="white"/>
</g>
<path d="M57.112 19.726H59.702V28H61.354V19.726H63.944V18.2H57.112V19.726ZM66.4262 28.14C67.1728 28.14 67.8122 27.9953 68.3442 27.706C68.8762 27.4073 69.3148 26.9687 69.6602 26.39L68.3442 25.872C68.1482 26.2173 67.8962 26.474 67.5882 26.642C67.2802 26.81 66.9162 26.894 66.4962 26.894C66.1042 26.894 65.7728 26.81 65.5022 26.642C65.2315 26.474 65.0215 26.2267 64.8722 25.9C64.7322 25.5733 64.6668 25.1813 64.6762 24.724C64.6762 24.2573 64.7462 23.8653 64.8862 23.548C65.0355 23.2307 65.2408 22.988 65.5022 22.82C65.7728 22.652 66.0995 22.568 66.4822 22.568C66.7995 22.568 67.0748 22.638 67.3082 22.778C67.5508 22.918 67.7375 23.114 67.8682 23.366C68.0082 23.618 68.0782 23.9167 68.0782 24.262C68.0782 24.3273 68.0595 24.4067 68.0222 24.5C67.9942 24.5933 67.9662 24.668 67.9382 24.724L68.4002 24.08H64.0462V25.13H69.7022C69.7022 25.0927 69.7022 25.032 69.7022 24.948C69.7115 24.864 69.7162 24.7847 69.7162 24.71C69.7162 24.0193 69.5902 23.4313 69.3382 22.946C69.0862 22.4513 68.7175 22.0733 68.2322 21.812C67.7562 21.5507 67.1775 21.42 66.4962 21.42C65.8148 21.42 65.2222 21.56 64.7182 21.84C64.2142 22.1107 63.8222 22.498 63.5422 23.002C63.2715 23.506 63.1362 24.0987 63.1362 24.78C63.1362 25.452 63.2715 26.04 63.5422 26.544C63.8128 27.048 64.1955 27.44 64.6902 27.72C65.1942 28 65.7728 28.14 66.4262 28.14ZM71.173 17.08V28H72.699V17.08H71.173ZM77.4183 28.14C78.165 28.14 78.8043 27.9953 79.3363 27.706C79.8683 27.4073 80.307 26.9687 80.6523 26.39L79.3363 25.872C79.1403 26.2173 78.8883 26.474 78.5803 26.642C78.2723 26.81 77.9083 26.894 77.4883 26.894C77.0963 26.894 76.765 26.81 76.4943 26.642C76.2237 26.474 76.0137 26.2267 75.8643 25.9C75.7243 25.5733 75.659 25.1813 75.6683 24.724C75.6683 24.2573 75.7383 23.8653 75.8783 23.548C76.0277 23.2307 76.233 22.988 76.4943 22.82C76.765 22.652 77.0917 22.568 77.4743 22.568C77.7917 22.568 78.067 22.638 78.3003 22.778C78.543 22.918 78.7297 23.114 78.8603 23.366C79.0003 23.618 79.0703 23.9167 79.0703 24.262C79.0703 24.3273 79.0517 24.4067 79.0143 24.5C78.9863 24.5933 78.9583 24.668 78.9303 24.724L79.3923 24.08H75.0383V25.13H80.6943C80.6943 25.0927 80.6943 25.032 80.6943 24.948C80.7037 24.864 80.7083 24.7847 80.7083 24.71C80.7083 24.0193 80.5823 23.4313 80.3303 22.946C80.0783 22.4513 79.7097 22.0733 79.2243 21.812C78.7483 21.5507 78.1697 21.42 77.4883 21.42C76.807 21.42 76.2143 21.56 75.7103 21.84C75.2063 22.1107 74.8143 22.498 74.5343 23.002C74.2637 23.506 74.1283 24.0987 74.1283 24.78C74.1283 25.452 74.2637 26.04 74.5343 26.544C74.805 27.048 75.1877 27.44 75.6823 27.72C76.1863 28 76.765 28.14 77.4183 28.14ZM81.8012 28.434C81.8199 28.994 81.9646 29.4887 82.2352 29.918C82.5059 30.3473 82.8886 30.6787 83.3832 30.912C83.8779 31.1547 84.4706 31.276 85.1612 31.276C85.7492 31.276 86.2952 31.15 86.7992 30.898C87.3032 30.6553 87.7092 30.282 88.0172 29.778C88.3346 29.274 88.4932 28.6347 88.4932 27.86V21.56H87.0092V27.86C87.0092 28.3453 86.9159 28.742 86.7292 29.05C86.5519 29.358 86.3186 29.5867 86.0292 29.736C85.7399 29.8853 85.4412 29.96 85.1332 29.96C84.7692 29.96 84.4519 29.89 84.1812 29.75C83.9106 29.6193 83.7006 29.4373 83.5512 29.204C83.4019 28.98 83.3226 28.7233 83.3132 28.434H81.8012ZM81.6752 24.738C81.6752 25.4473 81.8199 26.0493 82.1092 26.544C82.3986 27.0387 82.7812 27.4167 83.2572 27.678C83.7426 27.9393 84.2606 28.07 84.8112 28.07C85.3526 28.07 85.8239 27.9393 86.2252 27.678C86.6359 27.4073 86.9579 27.0247 87.1912 26.53C87.4339 26.026 87.5552 25.4287 87.5552 24.738C87.5552 24.038 87.4339 23.4453 87.1912 22.96C86.9579 22.4653 86.6359 22.0873 86.2252 21.826C85.8239 21.5553 85.3526 21.42 84.8112 21.42C84.2606 21.42 83.7426 21.5507 83.2572 21.812C82.7812 22.0733 82.3986 22.4513 82.1092 22.946C81.8199 23.4313 81.6752 24.0287 81.6752 24.738ZM83.2432 24.738C83.2432 24.3087 83.3319 23.9447 83.5092 23.646C83.6866 23.3473 83.9199 23.1233 84.2092 22.974C84.5079 22.8153 84.8299 22.736 85.1752 22.736C85.3992 22.736 85.6186 22.778 85.8332 22.862C86.0479 22.946 86.2439 23.0767 86.4212 23.254C86.5986 23.422 86.7386 23.632 86.8412 23.884C86.9532 24.1267 87.0092 24.4113 87.0092 24.738C87.0092 25.1767 86.9159 25.5453 86.7292 25.844C86.5519 26.1427 86.3232 26.3713 86.0432 26.53C85.7632 26.6793 85.4739 26.754 85.1752 26.754C84.8299 26.754 84.5079 26.6793 84.2092 26.53C83.9199 26.3713 83.6866 26.1427 83.5092 25.844C83.3319 25.536 83.2432 25.1673 83.2432 24.738ZM91.8663 21.56H90.3683V28H91.8663V21.56ZM93.7843 23.17L94.5263 21.896C94.377 21.7187 94.1997 21.5927 93.9943 21.518C93.789 21.4433 93.5697 21.406 93.3363 21.406C93.0097 21.406 92.6923 21.5273 92.3843 21.77C92.0857 22.0033 91.8383 22.3207 91.6423 22.722C91.4557 23.114 91.3623 23.5667 91.3623 24.08L91.8663 24.374C91.8663 24.066 91.899 23.8 91.9643 23.576C92.039 23.3427 92.1557 23.1607 92.3143 23.03C92.473 22.8993 92.6783 22.834 92.9303 22.834C93.117 22.834 93.271 22.862 93.3923 22.918C93.523 22.974 93.6537 23.058 93.7843 23.17ZM96.5157 25.998C96.5157 25.7927 96.5623 25.62 96.6557 25.48C96.7583 25.34 96.9077 25.2327 97.1037 25.158C97.2997 25.074 97.5563 25.032 97.8737 25.032C98.2377 25.032 98.583 25.0787 98.9097 25.172C99.2363 25.2653 99.5443 25.4147 99.8337 25.62V24.85C99.7497 24.7473 99.605 24.6353 99.3997 24.514C99.1943 24.3833 98.933 24.2713 98.6157 24.178C98.3077 24.0847 97.939 24.038 97.5097 24.038C96.707 24.038 96.0863 24.2247 95.6477 24.598C95.209 24.962 94.9897 25.4567 94.9897 26.082C94.9897 26.5207 95.0923 26.894 95.2977 27.202C95.503 27.51 95.7783 27.7433 96.1237 27.902C96.469 28.0607 96.8423 28.14 97.2437 28.14C97.617 28.14 97.981 28.0747 98.3357 27.944C98.6997 27.804 98.9983 27.594 99.2317 27.314C99.4743 27.034 99.5957 26.6887 99.5957 26.278L99.3717 25.438C99.3717 25.7647 99.297 26.0447 99.1477 26.278C98.9983 26.5113 98.7977 26.6933 98.5457 26.824C98.303 26.9453 98.0277 27.006 97.7197 27.006C97.4863 27.006 97.2763 26.9687 97.0897 26.894C96.9123 26.8193 96.7723 26.7073 96.6697 26.558C96.567 26.3993 96.5157 26.2127 96.5157 25.998ZM96.0397 23.24C96.1423 23.1747 96.287 23.0953 96.4737 23.002C96.6603 22.8993 96.8843 22.8153 97.1457 22.75C97.4163 22.6753 97.701 22.638 97.9997 22.638C98.1957 22.638 98.3777 22.6567 98.5457 22.694C98.7137 22.7313 98.8583 22.792 98.9797 22.876C99.1103 22.96 99.2083 23.0673 99.2737 23.198C99.339 23.3287 99.3717 23.4967 99.3717 23.702V28H100.856V23.408C100.856 22.9787 100.739 22.6147 100.506 22.316C100.282 22.0173 99.9643 21.7933 99.5537 21.644C99.143 21.4853 98.6763 21.406 98.1537 21.406C97.547 21.406 97.015 21.49 96.5577 21.658C96.1003 21.826 95.7223 21.9987 95.4237 22.176L96.0397 23.24ZM111.844 23.898C111.844 23.3753 111.765 22.9273 111.606 22.554C111.457 22.1807 111.233 21.9007 110.934 21.714C110.636 21.518 110.253 21.42 109.786 21.42C109.357 21.42 108.97 21.518 108.624 21.714C108.288 21.9007 108.004 22.1853 107.77 22.568C107.63 22.1947 107.402 21.91 107.084 21.714C106.776 21.518 106.389 21.42 105.922 21.42C105.502 21.42 105.143 21.5133 104.844 21.7C104.546 21.8773 104.298 22.1433 104.102 22.498V21.56H102.618V28H104.102V24.08C104.102 23.772 104.154 23.5107 104.256 23.296C104.368 23.0813 104.518 22.918 104.704 22.806C104.9 22.694 105.124 22.638 105.376 22.638C105.75 22.638 106.02 22.7593 106.188 23.002C106.366 23.2353 106.454 23.5947 106.454 24.08V28H107.966V24.08C107.966 23.772 108.018 23.5107 108.12 23.296C108.232 23.0813 108.382 22.918 108.568 22.806C108.764 22.694 108.993 22.638 109.254 22.638C109.618 22.638 109.884 22.7593 110.052 23.002C110.23 23.2353 110.318 23.5947 110.318 24.08V28H111.844V23.898Z" fill="white"/>
<path opacity="0.7" d="M244.505 26.04H251.967V24.99H249.965H249.727H246.465L249.237 20.846V25.382V25.536V28H250.427V18.2H249.937L244.505 26.04ZM255.929 23.17C256.563 23.17 257.119 23.058 257.595 22.834C258.071 22.61 258.444 22.3067 258.715 21.924C258.985 21.5413 259.121 21.1213 259.121 20.664C259.121 20.1973 259.009 19.768 258.785 19.376C258.57 18.984 258.257 18.6667 257.847 18.424C257.445 18.1813 256.965 18.06 256.405 18.06C255.873 18.06 255.397 18.172 254.977 18.396C254.566 18.6107 254.239 18.9093 253.997 19.292C253.763 19.6747 253.647 20.1227 253.647 20.636H254.781C254.781 20.2067 254.939 19.852 255.257 19.572C255.574 19.2827 255.961 19.138 256.419 19.138C256.745 19.138 257.016 19.2033 257.231 19.334C257.455 19.4647 257.623 19.6513 257.735 19.894C257.847 20.1273 257.903 20.398 257.903 20.706C257.903 20.9393 257.856 21.1587 257.763 21.364C257.679 21.5693 257.553 21.7513 257.385 21.91C257.217 22.0593 257.011 22.1807 256.769 22.274C256.526 22.358 256.246 22.4 255.929 22.4V23.17ZM256.349 28.14C256.937 28.14 257.459 28.028 257.917 27.804C258.374 27.58 258.733 27.2627 258.995 26.852C259.265 26.4413 259.401 25.9607 259.401 25.41C259.401 24.9247 259.307 24.5093 259.121 24.164C258.943 23.8187 258.691 23.5387 258.365 23.324C258.047 23.1 257.679 22.9367 257.259 22.834C256.848 22.7313 256.405 22.68 255.929 22.68V23.45C256.246 23.45 256.54 23.4873 256.811 23.562C257.081 23.6367 257.319 23.7533 257.525 23.912C257.73 24.0613 257.889 24.2527 258.001 24.486C258.122 24.71 258.183 24.9713 258.183 25.27C258.183 25.6247 258.108 25.9327 257.959 26.194C257.809 26.4553 257.595 26.6607 257.315 26.81C257.044 26.95 256.722 27.02 256.349 27.02C255.975 27.02 255.644 26.95 255.355 26.81C255.065 26.67 254.837 26.4787 254.669 26.236C254.51 25.9933 254.431 25.718 254.431 25.41H253.227C253.227 25.7927 253.301 26.152 253.451 26.488C253.6 26.8147 253.81 27.104 254.081 27.356C254.351 27.5987 254.678 27.79 255.061 27.93C255.443 28.07 255.873 28.14 256.349 28.14ZM260.309 28H267.225V26.88H262.759L265.881 23.702C266.264 23.31 266.577 22.8667 266.819 22.372C267.062 21.8773 267.183 21.378 267.183 20.874C267.183 20.5753 267.123 20.2627 267.001 19.936C266.88 19.6093 266.693 19.306 266.441 19.026C266.189 18.7367 265.867 18.5033 265.475 18.326C265.083 18.1393 264.617 18.046 264.075 18.046C263.403 18.046 262.825 18.1953 262.339 18.494C261.863 18.7833 261.499 19.194 261.247 19.726C260.995 20.2487 260.869 20.86 260.869 21.56H262.059C262.059 21.0653 262.139 20.6407 262.297 20.286C262.456 19.922 262.685 19.6467 262.983 19.46C263.291 19.264 263.655 19.166 264.075 19.166C264.374 19.166 264.64 19.2173 264.873 19.32C265.107 19.4227 265.303 19.558 265.461 19.726C265.629 19.894 265.755 20.0807 265.839 20.286C265.923 20.4913 265.965 20.7013 265.965 20.916C265.965 21.1773 265.923 21.4293 265.839 21.672C265.765 21.9053 265.648 22.1387 265.489 22.372C265.34 22.596 265.158 22.8247 264.943 23.058L260.309 28Z" fill="white"/>
<defs>
<clipPath id="clip0_291_10654">
<rect width="20" height="20" fill="white" transform="translate(16 13)"/>
</clipPath>
</defs>
</svg>
