<svg width="35" height="24" viewBox="0 0 35 24" fill="none" xmlns="http://www.w3.org/2000/svg">
<rect x="1.13403" y="0.559815" width="33.5905" height="22.8805" rx="2.6775" fill="white" stroke="#EAEBED" stroke-width="0.486818"/>
<path fill-rule="evenodd" clip-rule="evenodd" d="M11.2353 16.1459H9.17084L7.62277 10.24C7.54929 9.96828 7.39328 9.72811 7.16379 9.61491C6.59106 9.33044 5.95996 9.10404 5.27148 8.98986V8.76248H8.59711C9.05609 8.76248 9.40033 9.10404 9.4577 9.50073L10.2609 13.7609L12.3243 8.76248H14.3314L11.2353 16.1459ZM15.4789 16.1459H13.5292L15.1346 8.76248H17.0843L15.4789 16.1459ZM19.6066 10.808C19.664 10.4103 20.0082 10.183 20.4099 10.183C21.041 10.1259 21.7284 10.24 22.3022 10.5235L22.6464 8.93385C22.0727 8.70647 21.4416 8.59229 20.8688 8.59229C18.9765 8.59229 17.5996 9.615 17.5996 11.0344C17.5996 12.1142 18.5749 12.6812 19.2634 13.0227C20.0082 13.3633 20.2951 13.5907 20.2377 13.9313C20.2377 14.4421 19.664 14.6695 19.0913 14.6695C18.4028 14.6695 17.7143 14.4992 17.0842 14.2148L16.74 15.8054C17.4285 16.0889 18.1733 16.2031 18.8618 16.2031C20.9836 16.2592 22.3022 15.2375 22.3022 13.7039C22.3022 11.7726 19.6066 11.6594 19.6066 10.808ZM29.1256 16.1459L27.5775 8.76248H25.9147C25.5705 8.76248 25.2263 8.98986 25.1115 9.33044L22.2449 16.1459H24.2519L24.6525 15.0671H27.1186L27.3481 16.1459H29.1256ZM26.2016 10.7509L26.7743 13.5336H25.1689L26.2016 10.7509Z" fill="#172B85"/>
</svg>
